<?xml version="1.0" encoding="UTF-8"?>
<svg version="1.1" xmlns="http://www.w3.org/2000/svg" width="192" height="192">
<path d="M0 0 C2.46948242 1.09887695 2.46948242 1.09887695 5 3 C5.56762695 5.91088867 5.56762695 5.91088867 5.48828125 9.41796875 C5.47216797 10.67158203 5.45605469 11.92519531 5.43945312 13.21679688 C5.39755859 14.52712891 5.35566406 15.83746094 5.3125 17.1875 C5.28741661 18.52274529 5.26460348 19.85803529 5.24414062 21.19335938 C5.18511522 24.46336707 5.10281476 27.73112333 5 31 C3.35 30.34 1.7 29.68 0 29 C-0.72717559 33.65392376 1.08943641 36.57794862 3.5625 40.34375 C5.49343645 42.56852461 7.13810444 42.69060589 10 43 C12.6528331 46.28446002 12.30050261 49.9432147 12 54 C11.01 54.99 11.01 54.99 10 56 C9.72234584 58.32817205 9.72234584 58.32817205 9.8046875 61.0078125 C9.81113281 61.99394531 9.81757812 62.98007813 9.82421875 63.99609375 C9.84097656 65.02863281 9.85773438 66.06117187 9.875 67.125 C9.88402344 68.16527344 9.89304687 69.20554687 9.90234375 70.27734375 C9.92596253 72.85179092 9.95889851 75.42578212 10 78 C10.94875 78.14695312 11.8975 78.29390625 12.875 78.4453125 C16 79 16 79 18 79.875 C20.38700074 80.2428946 20.38700074 80.2428946 23.125 77.625 C24.07375 76.75875 25.0225 75.8925 26 75 C29.21490118 73.39254941 31.4301071 73.59694758 35 74 C38.52821301 76.03310147 42.14712658 78.29425316 44 82 C44.55655007 87.9508046 44.56049385 92.99305552 41 98 C37.58000952 101.71269237 34.2693795 105.17130288 29.125 106 C26 106 26 106 24 105 C22.52952664 108.91063224 22.52952664 108.91063224 22 113 C24.42134721 113.86476686 25.60873054 114.1422798 28.0625 113.25 C30.00691361 112.10209369 30.00691361 112.10209369 31.34375 110.59375 C33.23721331 108.77173814 35.15921809 107.55626619 37.4375 106.25 C38.19933594 105.80140625 38.96117187 105.3528125 39.74609375 104.890625 C42.33414736 103.86796257 43.43633001 104.04227363 46 105 C46.33 106.65 46.66 108.3 47 110 C45.08702939 111.15199331 43.16947471 112.29637688 41.25 113.4375 C39.64898437 114.39462891 39.64898437 114.39462891 38.015625 115.37109375 C35.56515029 116.69473099 33.71008663 117.53297051 31 118 C31.0825 119.216875 31.165 120.43375 31.25 121.6875 C31.23332647 124.83323999 31.0195065 125.96488831 29.4375 128.8125 C23.74114717 133.92461151 18.41020937 134.55205696 10.94921875 134.35546875 C6.80103631 133.85548914 3.24130638 132.69277761 0 130 C-2.47755811 126.12585659 -1.96938689 123.44302325 -1 119 C-0.01 117.515 -0.01 117.515 1 116 C-0.485 115.505 -0.485 115.505 -2 115 C-2.2784375 116.60875 -2.2784375 116.60875 -2.5625 118.25 C-3.23076135 120.69039144 -3.6966266 121.7568809 -5.69140625 123.35546875 C-7.41659751 124.32087881 -9.20599015 125.16943988 -11 126 C-11.08923649 129.83716913 -10.85513054 133.25880387 -10 137 C-10 137.33 -10 137.66 -10 138 C-13.34252724 138.07427838 -15.8035914 138.06546953 -19 137 C-19.33 135.02 -19.66 133.04 -20 131 C-20.76957031 131.61101562 -20.76957031 131.61101562 -21.5546875 132.234375 C-24 133 -24 133 -27.3828125 131.515625 C-28.63995486 130.77675486 -29.88716341 130.0207766 -31.125 129.25 C-31.75792969 128.87617188 -32.39085937 128.50234375 -33.04296875 128.1171875 C-35.61117367 126.57953615 -37.87663664 125.12336336 -40 123 C-40.103125 124.03125 -40.20625 125.0625 -40.3125 126.125 C-41.11826678 129.0094115 -41.87216573 129.90722396 -44.3359375 131.6953125 C-48.27872709 133.84494299 -52.26495837 135.69758287 -56.41796875 137.40625 C-60.83499359 139.37151296 -64.84735046 141.80732393 -68.92578125 144.390625 C-71.82209185 146.12969008 -73.51248588 147.04420128 -76.9296875 146.734375 C-77.95449219 146.37085938 -77.95449219 146.37085938 -79 146 C-79.33 143.69 -79.66 141.38 -80 139 C-80.7425 139.061875 -81.485 139.12375 -82.25 139.1875 C-85.61102221 138.95833939 -86.65179822 138.39577323 -89 136 C-89.54830933 133.02886963 -89.54830933 133.02886963 -89.61279297 129.34472656 C-89.62944 128.67278259 -89.64608704 128.00083862 -89.66323853 127.30853271 C-89.71145163 125.08566129 -89.72898316 122.86396392 -89.7421875 120.640625 C-89.76012416 119.09226128 -89.77836793 117.54390108 -89.79690552 115.99554443 C-89.82989699 112.74726955 -89.84528657 109.49940703 -89.85107422 106.25097656 C-89.86182641 102.09900888 -89.93708874 97.95094886 -90.02856255 93.80008316 C-90.08823391 90.59993591 -90.10252388 87.40072069 -90.10452652 84.20006561 C-90.11291162 82.67057195 -90.13770658 81.14107308 -90.17956161 79.61212921 C-90.48022896 67.67534283 -90.48022896 67.67534283 -86.8223114 63.53526306 C-84.28201553 61.73077683 -81.8134874 60.3281143 -79 59 C-77.82007072 58.31043469 -76.64372918 57.61465722 -75.47265625 56.91015625 C-74.34730469 56.30042969 -73.22195312 55.69070312 -72.0625 55.0625 C-63.43939522 50.3166065 -54.98733018 45.28902359 -46.53613281 40.24560547 C-40.69550569 36.76355749 -34.83833644 33.31965928 -28.92578125 29.9609375 C-27.81267578 29.32502686 -26.69957031 28.68911621 -25.55273438 28.03393555 C-23.42776737 26.82303097 -21.29769317 25.62103583 -19.16210938 24.42895508 C-18.21787109 23.88907959 -17.27363281 23.3492041 -16.30078125 22.79296875 C-15.46716064 22.3239917 -14.63354004 21.85501465 -13.7746582 21.37182617 C-13.189021 20.91912354 -12.60338379 20.4664209 -12 20 C-11.66781808 16.99740483 -11.66781808 16.99740483 -13.5 15.3125 C-13.995 14.879375 -14.49 14.44625 -15 14 C-13.7622343 10.2867029 -12.25608211 9.37219818 -9.1875 7 C-8.31480469 6.319375 -7.44210938 5.63875 -6.54296875 4.9375 C-4.36939364 3.28144278 -2.19032984 1.63381247 0 0 Z M-1 41 C-1.33425735 43.37374861 -1.33425735 43.37374861 -1 46 C0.9004467 47.84315671 0.9004467 47.84315671 3 49 C3 45.09161134 1.49432124 43.88405893 -1 41 Z M-1 53 C-1 56.3 -1 59.6 -1 63 C-0.67 63 -0.34 63 0 63 C0 59.7 0 56.4 0 53 C-0.33 53 -0.66 53 -1 53 Z M-1 74 C-1 75.65 -1 77.3 -1 79 C-0.67 79 -0.34 79 0 79 C0 77.35 0 75.7 0 74 C-0.33 74 -0.66 74 -1 74 Z M-14.625 100 C-15.73875 100.66 -16.8525 101.32 -18 102 C-13.36062908 105.51886113 -13.36062908 105.51886113 -8 107 C-7.73067479 102.34947128 -7.73067479 102.34947128 -9 98 C-11.46301423 98 -12.52063278 98.75296757 -14.625 100 Z " fill="#FCD359" transform="translate(117,22)"/>
<path d="M0 0 C2.46948242 1.09887695 2.46948242 1.09887695 5 3 C5.56762695 5.91088867 5.56762695 5.91088867 5.48828125 9.41796875 C5.47216797 10.67158203 5.45605469 11.92519531 5.43945312 13.21679688 C5.39755859 14.52712891 5.35566406 15.83746094 5.3125 17.1875 C5.28741661 18.52274529 5.26460348 19.85803529 5.24414062 21.19335938 C5.18511522 24.46336707 5.10281476 27.73112333 5 31 C3.35 30.34 1.7 29.68 0 29 C-0.72717559 33.65392376 1.08943641 36.57794862 3.5625 40.34375 C5.49343645 42.56852461 7.13810444 42.69060589 10 43 C12.66400242 46.29828872 12.42101803 49.93015901 12 54 C10.4375 57.375 10.4375 57.375 8 60 C4.3125 60.9375 4.3125 60.9375 1 61 C0 60 0 60 -0.25 56.8125 C-1.149293 52.2410939 -3.01214471 50.49797692 -6 47 C-7.4340013 43.03942499 -8 40.22068341 -8 36 C-10.27056672 36.84886724 -10.27056672 36.84886724 -10.91381836 39.50927734 C-11.21940674 40.6070752 -11.52499512 41.70487305 -11.83984375 42.8359375 C-12.18080078 44.04636719 -12.52175781 45.25679687 -12.87304688 46.50390625 C-13.22802382 47.79422704 -13.58284066 49.08459188 -13.9375 50.375 C-14.28490234 51.61378906 -14.63230469 52.85257813 -14.99023438 54.12890625 C-17.0272431 61.40996569 -19.01999195 68.70325135 -21 76 C-21.66 76 -22.32 76 -23 76 C-24.48046875 74.4609375 -24.48046875 74.4609375 -26.1875 72.375 C-29.86395713 68.04477958 -33.85203119 63.57398441 -39 61 C-39.32871094 62.49273437 -39.32871094 62.49273437 -39.6640625 64.015625 C-41.44237933 71.91488342 -43.43524185 79.69649425 -45.8125 87.4375 C-48.24837658 95.43566434 -50.61779502 103.4493981 -52.875 111.5 C-53.18542236 112.5614624 -53.49584473 113.6229248 -53.81567383 114.71655273 C-55.60498412 121.19275379 -56.24159529 126.76296047 -55.7253418 133.47875977 C-56 136 -56 136 -57.81689453 137.97631836 C-60.12737108 139.56832874 -62.47560417 140.77790217 -65 142 C-66.58337835 142.97909386 -68.16671366 143.95825735 -69.75 144.9375 C-72.5109557 146.60941206 -73.51566464 147.0649885 -76.765625 146.62890625 C-77.50296875 146.42136719 -78.2403125 146.21382812 -79 146 C-79.33 143.69 -79.66 141.38 -80 139 C-80.7425 139.061875 -81.485 139.12375 -82.25 139.1875 C-85.61102221 138.95833939 -86.65179822 138.39577323 -89 136 C-89.54830933 133.02886963 -89.54830933 133.02886963 -89.61279297 129.34472656 C-89.62944 128.67278259 -89.64608704 128.00083862 -89.66323853 127.30853271 C-89.71145163 125.08566129 -89.72898316 122.86396392 -89.7421875 120.640625 C-89.76012416 119.09226128 -89.77836793 117.54390108 -89.79690552 115.99554443 C-89.82989699 112.74726955 -89.84528657 109.49940703 -89.85107422 106.25097656 C-89.86182641 102.09900888 -89.93708874 97.95094886 -90.02856255 93.80008316 C-90.08823391 90.59993591 -90.10252388 87.40072069 -90.10452652 84.20006561 C-90.11291162 82.67057195 -90.13770658 81.14107308 -90.17956161 79.61212921 C-90.48022896 67.67534283 -90.48022896 67.67534283 -86.8223114 63.53526306 C-84.28201553 61.73077683 -81.8134874 60.3281143 -79 59 C-77.82007072 58.31043469 -76.64372918 57.61465722 -75.47265625 56.91015625 C-74.34730469 56.30042969 -73.22195312 55.69070312 -72.0625 55.0625 C-63.43939522 50.3166065 -54.98733018 45.28902359 -46.53613281 40.24560547 C-40.69550569 36.76355749 -34.83833644 33.31965928 -28.92578125 29.9609375 C-27.81267578 29.32502686 -26.69957031 28.68911621 -25.55273438 28.03393555 C-23.42776737 26.82303097 -21.29769317 25.62103583 -19.16210938 24.42895508 C-18.21787109 23.88907959 -17.27363281 23.3492041 -16.30078125 22.79296875 C-15.46716064 22.3239917 -14.63354004 21.85501465 -13.7746582 21.37182617 C-13.189021 20.91912354 -12.60338379 20.4664209 -12 20 C-11.66781808 16.99740483 -11.66781808 16.99740483 -13.5 15.3125 C-13.995 14.879375 -14.49 14.44625 -15 14 C-13.7622343 10.2867029 -12.25608211 9.37219818 -9.1875 7 C-8.31480469 6.319375 -7.44210938 5.63875 -6.54296875 4.9375 C-4.36939364 3.28144278 -2.19032984 1.63381247 0 0 Z M-1 41 C-1.33425735 43.37374861 -1.33425735 43.37374861 -1 46 C0.9004467 47.84315671 0.9004467 47.84315671 3 49 C3 45.09161134 1.49432124 43.88405893 -1 41 Z " fill="#FCBD03" transform="translate(117,22)"/>
<path d="M0 0 C-0.23074219 0.92296875 -0.46148437 1.8459375 -0.69921875 2.796875 C-0.85398682 3.4165918 -1.00875488 4.03630859 -1.16821289 4.67480469 C-1.51904249 6.07680354 -1.87112539 7.47848929 -2.22436523 8.87988281 C-3.27031264 13.03834902 -4.28855547 17.2016186 -5.2734375 21.375 C-5.59501831 22.71546387 -5.59501831 22.71546387 -5.9230957 24.08300781 C-6.34331242 25.83575595 -6.75614075 27.59029498 -7.16088867 29.34667969 C-8.16696816 33.50354002 -8.97197446 36.80521364 -12 40 C-12.60328125 39.37351563 -13.2065625 38.74703125 -13.828125 38.1015625 C-14.62734375 37.28429687 -15.4265625 36.46703125 -16.25 35.625 C-17.03890625 34.81289062 -17.8278125 34.00078125 -18.640625 33.1640625 C-20.73379455 31.24416857 -22.40397179 30.08366315 -25 29 C-25.32871094 30.49273437 -25.32871094 30.49273437 -25.6640625 32.015625 C-27.68572133 40.99218235 -30.06930288 49.78590834 -32.77441406 58.58007812 C-35.1398488 66.31985311 -37.13082424 74.12747151 -39 82 C-40.9375 82.5625 -40.9375 82.5625 -43 83 C-43.495 82.505 -43.495 82.505 -44 82 C-47.76165868 83.53537089 -51.31200625 85.12103205 -54.8125 87.1875 C-58 89 -58 89 -60 89 C-60.39453125 86.76953125 -60.39453125 86.76953125 -60 84 C-57.87640784 82.26416789 -56.04577807 81.00823597 -53.6875 79.6875 C-53.09259766 79.32849609 -52.49769531 78.96949219 -51.88476562 78.59960938 C-49.05657576 76.94061532 -47.32910152 76 -44 76 C-44 74.68 -44 73.36 -44 72 C-51.04893117 74.1713703 -57.58905309 76.92820076 -63 82 C-64.06982924 85.64752805 -64.20379096 88.55400209 -64.04296875 92.33984375 C-64.02878906 93.21769531 -64.01460937 94.09554687 -64 95 C-64.99 95.495 -64.99 95.495 -66 96 C-66.34901021 88.46459785 -66.61476596 80.93003954 -66.77718258 73.38837528 C-66.85519239 69.88482121 -66.96071027 66.38682614 -67.1315918 62.88647461 C-68.20037851 40.4012333 -68.20037851 40.4012333 -64.65353394 34.91870117 C-61.24797152 31.69281539 -57.32977105 30.08926438 -52.9156189 28.65878296 C-50.19675984 27.72376503 -47.86565069 26.2982931 -45.41796875 24.8046875 C-43.67552842 23.8262541 -41.93202351 22.8497143 -40.1875 21.875 C-33.70353568 18.23725056 -27.23824404 14.5715521 -20.8125 10.83203125 C-19.91825066 10.31237793 -19.91825066 10.31237793 -19.00593567 9.78222656 C-16.08507493 8.08446647 -13.16702589 6.38229626 -10.25268555 4.67333984 C-9.2037915 4.06312988 -8.15489746 3.45291992 -7.07421875 2.82421875 C-6.14182373 2.27854248 -5.20942871 1.73286621 -4.2487793 1.1706543 C-2 0 -2 0 0 0 Z " fill="#A8BDCA" transform="translate(103,54)"/>
<path d="M0 0 C0.66 0 1.32 0 2 0 C4.52412316 8.76019213 2.57710648 14.86523359 0.3125 23.5625 C0.05065918 24.56869385 -0.21118164 25.5748877 -0.48095703 26.61157227 C-3.07881021 36.48233128 -5.98812107 46.24877496 -9 56 C-12.51802689 54.74833586 -15.04189933 53.37397315 -17.8125 50.875 C-18.71935547 50.06675781 -18.71935547 50.06675781 -19.64453125 49.2421875 C-20.09183594 48.83226562 -20.53914063 48.42234375 -21 48 C-21.18949219 49.50626953 -21.18949219 49.50626953 -21.3828125 51.04296875 C-21.93318192 54.88493356 -22.85429285 58.56595087 -23.875 62.3125 C-24.05281006 62.96984131 -24.23062012 63.62718262 -24.41381836 64.30444336 C-25.61283486 68.70227422 -26.91437804 73.05768752 -28.31640625 77.39453125 C-29.09091699 80.12600355 -29.09091699 80.12600355 -29.46484375 83.51171875 C-30.81223083 92.92375846 -30.81223083 92.92375846 -34.49609375 96.26171875 C-41.58039628 100.29779549 -41.58039628 100.29779549 -45.16821289 99.54516602 C-46.07494751 99.27530884 -46.07494751 99.27530884 -47 99 C-47.49741914 90.49498301 -46.11285838 83.27031288 -43.75 75.125 C-43.42717041 73.9709668 -43.10434082 72.81693359 -42.77172852 71.62792969 C-40.96129307 65.19831182 -39.06914839 58.79747169 -37.0390625 52.43359375 C-35.22538656 46.44028116 -33.63283294 40.38427788 -32.01733398 34.33496094 C-31.77055908 33.41618164 -31.52378418 32.49740234 -31.26953125 31.55078125 C-30.93852417 30.30808472 -30.93852417 30.30808472 -30.60083008 29.0402832 C-30 27 -30 27 -29 25 C-24.36026982 26.4249994 -21.48920456 29.08809169 -18.1875 32.5 C-17.68541016 32.99886719 -17.18332031 33.49773437 -16.66601562 34.01171875 C-13 37.73259991 -13 37.73259991 -13 40 C-12.34 40 -11.68 40 -11 40 C-10.90275635 39.37561035 -10.8055127 38.7512207 -10.70532227 38.10791016 C-9.35017095 30.02097689 -7.2256689 22.24237142 -4.9375 14.375 C-4.56925193 13.08475223 -4.20141099 11.79438819 -3.83398438 10.50390625 C-1.13508555 1.13508555 -1.13508555 1.13508555 0 0 Z " fill="#FCBD05" transform="translate(107,58)"/>
<path d="M0 0 C0.7425 0.61875 1.485 1.2375 2.25 1.875 C8.5098592 6.71216393 14.20719006 6.93550049 22 6 C25.32041294 4.69457738 28.07560163 3.01395652 31 1 C31.05790353 4.29159316 31.09356261 7.58305603 31.125 10.875 C31.14175781 11.81214844 31.15851563 12.74929687 31.17578125 13.71484375 C31.18544922 15.05869141 31.18544922 15.05869141 31.1953125 16.4296875 C31.21102295 17.67081299 31.21102295 17.67081299 31.22705078 18.93701172 C31 21 31 21 29 23 C32.43777074 24.80512197 32.43777074 24.80512197 36.125 24.3125 C38.00284518 23.09062093 38.00284518 23.09062093 39.33984375 21.58984375 C41.23619422 19.7738093 43.16092818 18.5552857 45.4375 17.25 C46.19933594 16.80140625 46.96117187 16.3528125 47.74609375 15.890625 C50.33414736 14.86796257 51.43633001 15.04227363 54 16 C54.495 18.475 54.495 18.475 55 21 C53.08702939 22.15199331 51.16947471 23.29637688 49.25 24.4375 C48.18265625 25.07558594 47.1153125 25.71367187 46.015625 26.37109375 C43.56515029 27.69473099 41.71008663 28.53297051 39 29 C39.0825 30.216875 39.165 31.43375 39.25 32.6875 C39.23332647 35.83323999 39.0195065 36.96488831 37.4375 39.8125 C31.74114717 44.92461151 26.41020937 45.55205696 18.94921875 45.35546875 C14.80103631 44.85548914 11.24130638 43.69277761 8 41 C5.52244189 37.12585659 6.03061311 34.44302325 7 30 C7.66 29.01 8.32 28.02 9 27 C8.360625 26.731875 7.72125 26.46375 7.0625 26.1875 C5 25 5 25 4 22 C3.33484375 21.690625 2.6696875 21.38125 1.984375 21.0625 C0 20 0 20 -0.609375 18.1875 C-0.65578125 17.465625 -0.7021875 16.74375 -0.75 16 C-0.80414063 15.2059375 -0.85828125 14.411875 -0.9140625 13.59375 C-1.22219582 4.29372624 -1.22219582 4.29372624 -1 1 C-0.67 0.67 -0.34 0.34 0 0 Z " fill="#FAD76D" transform="translate(109,111)"/>
<path d="M0 0 C1 2 1 2 0.36376953 3.93994141 C-1.36980394 6.55861183 -3.05970591 7.47321859 -5.8203125 8.9609375 C-6.81877197 9.50790283 -7.81723145 10.05486816 -8.84594727 10.6184082 C-9.92803467 11.1980835 -11.01012207 11.77775879 -12.125 12.375 C-14.4086351 13.62432447 -16.69115964 14.87568076 -18.97265625 16.12890625 C-19.5562944 16.44810532 -20.13993256 16.76730438 -20.74125671 17.09617615 C-27.68588911 20.90276647 -34.50389916 24.92150304 -41.32666016 28.94091797 C-49.49451717 33.74031639 -57.73648554 38.35177312 -66 43 C-66 62.14 -66 81.28 -66 101 C-65.67 96.71 -65.34 92.42 -65 88 C-61.75808598 85.16332523 -59.72970707 83.77360688 -56 82 C-54.37338388 81.02352042 -52.7483084 80.04446853 -51.125 79.0625 C-48.9453125 77.78515625 -48.9453125 77.78515625 -47 77 C-45.515 77.495 -45.515 77.495 -44 78 C-44 80.64 -44 83.28 -44 86 C-44.33 84.68 -44.66 83.36 -45 82 C-45.74765625 82.40992188 -46.4953125 82.81984375 -47.265625 83.2421875 C-48.25046875 83.78101563 -49.2353125 84.31984375 -50.25 84.875 C-51.22453125 85.40867187 -52.1990625 85.94234375 -53.203125 86.4921875 C-56 88 -56 88 -58.296875 88.8828125 C-60.28719678 89.92315346 -60.28719678 89.92315346 -60.75 92.625 C-60.8325 93.40875 -60.915 94.1925 -61 95 C-59.78763672 94.25943359 -59.78763672 94.25943359 -58.55078125 93.50390625 C-57.48214844 92.86324219 -56.41351563 92.22257812 -55.3125 91.5625 C-54.25675781 90.92441406 -53.20101562 90.28632813 -52.11328125 89.62890625 C-49.25478293 88.1333055 -47.18895272 87.29879455 -44 87 C-42.515 87.495 -42.515 87.495 -41 88 C-41.2165625 88.87398437 -41.2165625 88.87398437 -41.4375 89.765625 C-42.58376731 94.82830561 -42.98399676 99.06234753 -42.5625 104.25 C-42.4702699 109.39512214 -42.4702699 109.39512214 -44.6796875 111.91796875 C-47.04592929 113.51047404 -49.43391629 114.75772044 -52 116 C-53.58337835 116.97909386 -55.16671366 117.95825735 -56.75 118.9375 C-59.5109557 120.60941206 -60.51566464 121.0649885 -63.765625 120.62890625 C-64.50296875 120.42136719 -65.2403125 120.21382813 -66 120 C-66.33 117.69 -66.66 115.38 -67 113 C-68.65 113 -70.3 113 -72 113 C-71.98513107 103.81152586 -71.94356536 94.62367347 -71.86790943 85.43549728 C-71.83361792 81.1690035 -71.80852617 76.90286859 -71.80444336 72.63623047 C-71.80016491 68.51860997 -71.77174122 64.40179931 -71.72656822 60.28443146 C-71.71357846 58.71361254 -71.70929081 57.14269677 -71.71384621 55.57183075 C-71.7187423 53.37089097 -71.69271102 51.17232731 -71.65942383 48.97167969 C-71.65276199 47.71925476 -71.64610016 46.46682983 -71.63923645 45.17645264 C-71 42 -71 42 -68.62911987 39.66957092 C-65.88230545 37.92526039 -63.134898 36.23630439 -60.30078125 34.63671875 C-59.18638672 34.00435303 -58.07199219 33.3719873 -56.92382812 32.72045898 C-56.33545166 32.38924042 -55.7470752 32.05802185 -55.14086914 31.71676636 C-52.64535255 30.31193447 -50.15527572 28.89758242 -47.6647644 27.48390198 C-46.37446229 26.75165701 -45.08387107 26.01992124 -43.79299927 25.28868103 C-37.17558841 21.53900851 -30.58590831 17.74220845 -24 13.9375 C-22.97044189 13.34348389 -21.94088379 12.74946777 -20.88012695 12.13745117 C-13.90818195 8.11197281 -6.95093228 4.06164294 0 0 Z " fill="#2C4373" transform="translate(104,48)"/>
<path d="M0 0 C2.8369841 1.36573821 5.00722456 2.50903069 7 5 C7 5.99 7 6.98 7 8 C9.95106435 9.25348607 10.97406463 9.01044806 14.015625 7.78515625 C15.08296875 7.21667969 16.1503125 6.64820312 17.25 6.0625 C18.32765625 5.49660156 19.4053125 4.93070312 20.515625 4.34765625 C21.33546875 3.90292969 22.1553125 3.45820312 23 3 C23.0455689 6.77570888 22.92961633 10.32907188 22 14 C19.76740859 16.22722461 18.01027141 16.85062364 15 18 C15.5775 18.33773437 16.155 18.67546875 16.75 19.0234375 C17.4925 19.46945313 18.235 19.91546875 19 20.375 C19.7425 20.81585938 20.485 21.25671875 21.25 21.7109375 C21.8275 22.13632813 22.405 22.56171875 23 23 C23 23.66 23 24.32 23 25 C25.475 25.99 25.475 25.99 28 27 C28.4819411 30.44721757 28.71732016 33.57690598 28 37 C26.04987917 38.71490889 24.10042589 39.69969849 21.78515625 40.859375 C21.19605469 41.23578125 20.60695313 41.6121875 20 42 C19.25 45 19.25 45 20 48 C20.2475 49.3921875 20.2475 49.3921875 20.5 50.8125 C20.7475 51.8953125 20.7475 51.8953125 21 53 C21 53.33 21 53.66 21 54 C17.65747276 54.07427838 15.1964086 54.06546953 12 53 C11.67 51.02 11.34 49.04 11 47 C10.48695312 47.40476563 9.97390625 47.80953125 9.4453125 48.2265625 C7 49 7 49 3.6171875 47.5859375 C2.3600615 46.86568138 1.1128426 46.12791457 -0.125 45.375 C-0.75792969 45.01792969 -1.39085938 44.66085938 -2.04296875 44.29296875 C-4.50599328 42.8444384 -6.64428824 41.42275691 -8.4921875 39.2265625 C-9.91530876 32.98672314 -7.37113674 26.17222724 -5.625 20.1875 C-5.17558708 18.61073241 -4.72636807 17.03390954 -4.27734375 15.45703125 C-4.05933105 14.6985791 -3.84131836 13.94012695 -3.61669922 13.15869141 C-2.78215802 10.23746682 -1.98236127 7.30723943 -1.1875 4.375 C-0.95417969 3.51648438 -0.72085938 2.65796875 -0.48046875 1.7734375 C-0.32191406 1.18820313 -0.16335937 0.60296875 0 0 Z " fill="#F0E5D3" transform="translate(86,106)"/>
<path d="M0 0 C0.99 0.33 1.98 0.66 3 1 C3 1.66 3 2.32 3 3 C3.66 3 4.32 3 5 3 C3.2988922 12.01288694 0.97267993 20.67225425 -1.72363281 29.42773438 C-4.10861547 37.21847873 -6.11825834 45.0745469 -8 53 C-9.9375 53.5625 -9.9375 53.5625 -12 54 C-12.495 53.505 -12.495 53.505 -13 53 C-16.76165868 54.53537089 -20.31200625 56.12103205 -23.8125 58.1875 C-27 60 -27 60 -29 60 C-29.39453125 57.76953125 -29.39453125 57.76953125 -29 55 C-26.87640784 53.26416789 -25.04577807 52.00823597 -22.6875 50.6875 C-22.09259766 50.32849609 -21.49769531 49.96949219 -20.88476562 49.59960938 C-18.05657576 47.94061532 -16.32910152 47 -13 47 C-13 45.68 -13 44.36 -13 43 C-20.04893117 45.1713703 -26.58905309 47.92820076 -32 53 C-33.06982924 56.64752805 -33.20379096 59.55400209 -33.04296875 63.33984375 C-33.02878906 64.21769531 -33.01460937 65.09554687 -33 66 C-33.99 66.495 -33.99 66.495 -35 67 C-35 47.53 -35 28.06 -35 8 C-34.67 8 -34.34 8 -34 8 C-33.67 19.88 -33.34 31.76 -33 44 C-29.67970906 38.02584463 -29.67970906 38.02584463 -26.39038086 32.03466797 C-22.94357766 25.95892514 -19.09709545 20.39673709 -12.25 18.0625 C-8.73869214 16.4043824 -8.31382458 13.5035322 -7 10 C-6.34 9.34 -5.68 8.68 -5 8 C-1.875 8.375 -1.875 8.375 1 9 C1 7.68 1 6.36 1 5 C0.34 4.67 -0.32 4.34 -1 4 C-0.67 2.68 -0.34 1.36 0 0 Z " fill="#A5BAC8" transform="translate(72,83)"/>
<path d="M0 0 C0.23022461 2.32226562 0.23022461 2.32226562 0 5 C-1.50952148 6.53710937 -1.50952148 6.53710937 -3.68359375 7.84375 C-4.92278564 8.60171875 -4.92278564 8.60171875 -6.18701172 9.375 C-7.57944092 10.179375 -7.57944092 10.179375 -9 11 C-9.98371582 11.5775 -10.96743164 12.155 -11.98095703 12.75 C-14.73632327 14.34795161 -17.50167538 15.92621411 -20.2756958 17.49151611 C-23.36373254 19.23442409 -26.44517234 20.98893488 -29.52734375 22.7421875 C-30.15201538 23.0971933 -30.77668701 23.4521991 -31.42028809 23.81796265 C-37.67957518 27.37863434 -43.90648723 30.9935502 -50.125 34.625 C-51.07640869 35.17994141 -52.02781738 35.73488281 -53.00805664 36.30664062 C-63.04732272 41.44046015 -63.04732272 41.44046015 -72 48 C-72.12401914 50.17731389 -72.1780151 52.35863454 -72.20532227 54.53930664 C-72.21522186 55.22220261 -72.22512146 55.90509857 -72.23532104 56.60868835 C-72.26701935 58.87580853 -72.29172613 61.14294969 -72.31640625 63.41015625 C-72.3369686 64.97815001 -72.35796488 66.54613813 -72.37937927 68.11412048 C-72.43467424 72.24870248 -72.48405062 76.38333511 -72.53222656 80.51800537 C-72.58238753 84.73405483 -72.63810174 88.95003043 -72.69335938 93.16601562 C-72.8010317 101.44394803 -72.90245635 109.72194208 -73 118 C-74.65 117.34 -76.3 116.68 -78 116 C-78.23214892 106.99446438 -78.40959919 97.98996468 -78.51812172 88.98208523 C-78.57022107 84.79874625 -78.64081846 80.61746005 -78.75439453 76.43530273 C-78.8634091 72.39562553 -78.92291076 68.35791614 -78.94877243 64.31688118 C-78.96718909 62.77888056 -79.00315895 61.24098269 -79.05730057 59.703825 C-79.46417706 47.66849617 -79.46417706 47.66849617 -75.83122253 43.52857971 C-73.28790295 41.72211529 -70.81929545 40.32403629 -68 39 C-66.81986957 38.31077899 -65.64349701 37.61504301 -64.47265625 36.91015625 C-63.34730469 36.30042969 -62.22195312 35.69070312 -61.0625 35.0625 C-53.61696233 30.96470347 -46.30265395 26.65880652 -39 22.3125 C-36.67995607 20.93314159 -34.35958618 19.5543324 -32.0390625 18.17578125 C-31.45975479 17.8316066 -30.88044708 17.48743195 -30.28358459 17.13282776 C-23.99423846 13.39873818 -17.68844826 9.69319525 -11.375 6 C-10.34375 5.39454346 -9.3125 4.78908691 -8.25 4.1652832 C-7.30898437 3.61573975 -6.36796875 3.06619629 -5.3984375 2.5 C-4.57005371 2.0153125 -3.74166992 1.530625 -2.88818359 1.03125 C-1 0 -1 0 0 0 Z " fill="#B5C5CC" transform="translate(106,42)"/>
<path d="M0 0 C0.7425 0.61875 1.485 1.2375 2.25 1.875 C8.5098592 6.71216393 14.20719006 6.93550049 22 6 C25.32041294 4.69457738 28.07560163 3.01395652 31 1 C31.08706892 4.27066566 31.14041241 7.54103365 31.1875 10.8125 C31.21263672 11.74126953 31.23777344 12.67003906 31.26367188 13.62695312 C31.27333984 14.51962891 31.28300781 15.41230469 31.29296875 16.33203125 C31.3086792 17.15421143 31.32438965 17.9763916 31.34057617 18.82348633 C30.91717486 21.52930904 30.16642829 22.37088914 28 24 C25.07421875 24.6953125 25.07421875 24.6953125 21.6875 25.125 C20.02267578 25.34542969 20.02267578 25.34542969 18.32421875 25.5703125 C16.67873047 25.78300781 16.67873047 25.78300781 15 26 C13.91976562 26.19851562 12.83953125 26.39703125 11.7265625 26.6015625 C8.65254726 27.0507739 7.47790806 26.83548745 5 25 C4.67 24.01 4.34 23.02 4 22 C3.33484375 21.690625 2.6696875 21.38125 1.984375 21.0625 C0 20 0 20 -0.609375 18.1875 C-0.65578125 17.465625 -0.7021875 16.74375 -0.75 16 C-0.80414063 15.2059375 -0.85828125 14.411875 -0.9140625 13.59375 C-1.22219582 4.29372624 -1.22219582 4.29372624 -1 1 C-0.67 0.67 -0.34 0.34 0 0 Z " fill="#F8BA02" transform="translate(109,111)"/>
<path d="M0 0 C5.59771387 5.59771387 5.64097613 5.9391972 6 13 C9.34252724 13.07427838 11.8035914 13.06546953 15 12 C16.61770585 15.2354117 16.14279662 18.76207351 16.125 22.3125 C16.13080078 23.45235352 16.13080078 23.45235352 16.13671875 24.61523438 C16.12989371 28.54304438 15.96449979 32.16496512 15 36 C15.99 36 16.98 36 18 36 C18.33 37.65 18.66 39.3 19 41 C16.525 41.495 16.525 41.495 14 42 C14.33 42.66 14.66 43.32 15 44 C12.525 44.495 12.525 44.495 10 45 C10 44.34 10 43.68 10 43 C8.35 42.67 6.7 42.34 5 42 C5 41.01 5 40.02 5 39 C5.66 39 6.32 39 7 39 C6.67 36.69 6.34 34.38 6 32 C4.02 33.32 2.04 34.64 0 36 C0 24.12 0 12.24 0 0 Z " fill="#304877" transform="translate(111,69)"/>
<path d="M0 0 C1.65 0.66 3.3 1.32 5 2 C3.28373584 11.77871441 0.48211929 21.2184781 -2.25 30.75 C-3.2439306 34.23778618 -4.23527929 37.72630436 -5.2265625 41.21484375 C-5.46841278 42.06463303 -5.71026306 42.9144223 -5.95944214 43.78996277 C-8.1513539 51.50281617 -10.27035918 59.23399059 -12.33691406 66.98144531 C-13.89892535 72.7978507 -13.89892535 72.7978507 -15 75 C-15.99 74.67 -16.98 74.34 -18 74 C-18.49741914 65.49498301 -17.11285838 58.27031288 -14.75 50.125 C-14.42717041 48.9709668 -14.10434082 47.81693359 -13.77172852 46.62792969 C-11.96129307 40.19831182 -10.06914839 33.79747169 -8.0390625 27.43359375 C-6.22538656 21.44028116 -4.63283294 15.38427788 -3.01733398 9.33496094 C-2.77055908 8.41618164 -2.52378418 7.49740234 -2.26953125 6.55078125 C-1.93852417 5.30808472 -1.93852417 5.30808472 -1.60083008 4.0402832 C-1 2 -1 2 0 0 Z " fill="#FADA79" transform="translate(78,83)"/>
<path d="M0 0 C2.8369841 1.36573821 5.00722456 2.50903069 7 5 C7 5.99 7 6.98 7 8 C9.95106435 9.25348607 10.97406463 9.01044806 14.015625 7.78515625 C15.08296875 7.21667969 16.1503125 6.64820312 17.25 6.0625 C18.32765625 5.49660156 19.4053125 4.93070312 20.515625 4.34765625 C21.33546875 3.90292969 22.1553125 3.45820312 23 3 C23.16786115 6.8339486 23.08053613 10.30124171 22 14 C18.95904891 16.80337678 15.22291588 19 11 19 C10.67 18.34 10.34 17.68 10 17 C8.88625 17.020625 7.7725 17.04125 6.625 17.0625 C3 17 3 17 1 16 C1.12375 17.794375 1.12375 17.794375 1.25 19.625 C1.25 24.09394016 -0.01381044 26.5990619 -3 30 C-5.25 30.875 -5.25 30.875 -7 31 C-7 32.65 -7 34.3 -7 36 C-7.99 36.495 -7.99 36.495 -9 37 C-8.40602795 31.17247419 -7.26369067 25.80396547 -5.625 20.1875 C-5.17558708 18.61073241 -4.72636807 17.03390954 -4.27734375 15.45703125 C-4.05933105 14.6985791 -3.84131836 13.94012695 -3.61669922 13.15869141 C-2.78215802 10.23746682 -1.98236127 7.30723943 -1.1875 4.375 C-0.95417969 3.51648438 -0.72085938 2.65796875 -0.48046875 1.7734375 C-0.32191406 1.18820313 -0.16335937 0.60296875 0 0 Z " fill="#A6B6B9" transform="translate(86,106)"/>
<path d="M0 0 C0.99 0.33 1.98 0.66 3 1 C3 1.66 3 2.32 3 3 C3.66 3 4.32 3 5 3 C3.2988922 12.01288694 0.97267993 20.67225425 -1.72363281 29.42773438 C-4.10861547 37.21847873 -6.11825834 45.0745469 -8 53 C-9.9375 53.5625 -9.9375 53.5625 -12 54 C-12.495 53.505 -12.495 53.505 -13 53 C-16.76165868 54.53537089 -20.31200625 56.12103205 -23.8125 58.1875 C-27 60 -27 60 -29 60 C-29.39453125 57.76953125 -29.39453125 57.76953125 -29 55 C-26.87640784 53.26416789 -25.04577807 52.00823597 -22.6875 50.6875 C-22.09259766 50.32849609 -21.49769531 49.96949219 -20.88476562 49.59960938 C-18.05657576 47.94061532 -16.32910152 47 -13 47 C-13 45.35 -13 43.7 -13 42 C-12.34 42 -11.68 42 -11 42 C-10.84144531 41.19820312 -10.68289062 40.39640625 -10.51953125 39.5703125 C-9.0455479 32.38769752 -7.38051249 25.27400312 -5.5 18.1875 C-5.29866455 17.3929541 -5.0973291 16.5984082 -4.88989258 15.77978516 C-4.35769853 13.823924 -3.68932835 11.90616101 -3 10 C-2.01 9.67 -1.02 9.34 0 9 C0.73323796 6.98491642 0.73323796 6.98491642 1 5 C0.34 4.67 -0.32 4.34 -1 4 C-0.67 2.68 -0.34 1.36 0 0 Z " fill="#6D95B7" transform="translate(72,83)"/>
<path d="M0 0 C1.65 0.99 3.3 1.98 5 3 C5.60127258 5.98027039 5.60127258 5.98027039 5.56762695 9.67456055 C5.56835709 10.347995 5.56908722 11.02142944 5.56983948 11.715271 C5.56635752 13.93990816 5.5274743 16.1624478 5.48828125 18.38671875 C5.47895512 19.92941646 5.47183806 21.47212899 5.46684265 23.0148468 C5.44775659 27.07423834 5.39864337 31.13273456 5.34332275 35.19177246 C5.29216408 39.3341053 5.26933593 43.4765829 5.24414062 47.61914062 C5.19052492 55.74650451 5.10519419 63.87314087 5 72 C3.35 71.34 1.7 70.68 0 70 C0 46.9 0 23.8 0 0 Z " fill="#8AA9C0" transform="translate(28,88)"/>
<path d="M0 0 C0.06466978 3.23124376 0.04025406 6.45599387 0 9.6875 C0.02900391 11.05551758 0.02900391 11.05551758 0.05859375 12.45117188 C-0.08675354 19.11292289 -0.08675354 19.11292289 -2.74658203 21.6965332 C-4.78518814 22.9702543 -6.81423907 24.00525683 -9 25 C-9.94875 25.598125 -10.8975 26.19625 -11.875 26.8125 C-14 28 -14 28 -16 28 C-17.26582219 24.13276369 -17.1118765 20.26848738 -17.0625 16.25 C-17.05798828 15.55261719 -17.05347656 14.85523438 -17.04882812 14.13671875 C-17.0371002 12.42444197 -17.01916653 10.71220967 -17 9 C-16.01 8.67 -15.02 8.34 -14 8 C-13.34 8.33 -12.68 8.66 -12 9 C-11.896875 8.360625 -11.79375 7.72125 -11.6875 7.0625 C-11.460625 6.381875 -11.23375 5.70125 -11 5 C-10.01 4.67 -9.02 4.34 -8 4 C-6.4840625 2.9790625 -6.4840625 2.9790625 -4.9375 1.9375 C-2 0 -2 0 0 0 Z " fill="#57779E" transform="translate(59,137)"/>
<path d="M0 0 C0.33 0 0.66 0 1 0 C1.02477057 5.17781223 1.04289347 10.35558975 1.05493164 15.53344727 C1.0599517 17.29387005 1.0667691 19.05428868 1.07543945 20.81469727 C1.08760703 23.34913154 1.09325166 25.88351054 1.09765625 28.41796875 C1.10281754 29.20149216 1.10797882 29.98501556 1.11329651 30.7922821 C1.11369066 34.65591139 0.9444276 38.245165 0 42 C-0.66 41.67 -1.32 41.34 -2 41 C-4.93691775 42.22398525 -4.93691775 42.22398525 -8.125 43.9375 C-9.22070312 44.50339844 -10.31640625 45.06929687 -11.4453125 45.65234375 C-12.28835937 46.09707031 -13.13140625 46.54179688 -14 47 C-14.99 46.34 -15.98 45.68 -17 45 C-16.67 44.34 -16.34 43.68 -16 43 C-14.68 43.66 -13.36 44.32 -12 45 C-11.9175 43.9275 -11.835 42.855 -11.75 41.75 C-11.31331726 38.28644784 -10.47314365 35.22679301 -9.3125 31.9375 C-6.75879693 24.66132397 -4.91368977 17.2164178 -3.01879883 9.74584961 C-2.77154053 8.77526611 -2.52428223 7.80468262 -2.26953125 6.8046875 C-2.04885986 5.92796387 -1.82818848 5.05124023 -1.60083008 4.14794922 C-1 2 -1 2 0 0 Z " fill="#AABCC0" transform="translate(110,69)"/>
<path d="M0 0 C0.33 0.99 0.66 1.98 1 3 C4.465 2.505 4.465 2.505 8 2 C8 2.66 8 3.32 8 4 C13.7974423 4.24428343 13.7974423 4.24428343 19 2 C18.690625 2.763125 18.38125 3.52625 18.0625 4.3125 C16.1047447 9.2644693 16.15501404 12.68549081 16.875 17.875 C16.96652344 18.58269531 17.05804688 19.29039062 17.15234375 20.01953125 C17.64051411 23.71174935 18.23776974 27.3551535 19 31 C19 31.33 19 31.66 19 32 C15.65747276 32.07427838 13.1964086 32.06546953 10 31 C10 25.39 10 19.78 10 14 C7.69 13.67 5.38 13.34 3 13 C0.5 10.9375 0.5 10.9375 -1 8 C-1.02096331 5.16995258 -0.56989853 2.80200112 0 0 Z " fill="#DA7F5A" transform="translate(88,128)"/>
<path d="M0 0 C0.7425 0.61875 1.485 1.2375 2.25 1.875 C8.5098592 6.71216393 14.20719006 6.93550049 22 6 C25.30113662 4.70215588 28.13049416 3.07612826 31 1 C31.13526616 3.5850867 31.23417653 6.16308752 31.3125 8.75 C31.35439453 9.47960937 31.39628906 10.20921875 31.43945312 10.9609375 C31.52778093 14.84736083 31.40879688 16.569106 28.6875 19.4375 C23.17782527 22.64079926 17.33188964 23.82589865 11 23 C8.21549154 22.17654707 5.67765142 21.14756489 3 20 C3 19.01 3 18.02 3 17 C3.721875 17.495 4.44375 17.99 5.1875 18.5 C10.36944207 21.09715474 16.37915345 20.53497905 22 20 C25.6626931 18.92995362 25.6626931 18.92995362 28 17 C28.33 16.01 28.66 15.02 29 14 C28.16984375 14.48855469 27.3396875 14.97710937 26.484375 15.48046875 C22.46836684 17.2318445 19.61231296 17.36853762 15.25 17.3125 C13.93515625 17.30863281 12.6203125 17.30476563 11.265625 17.30078125 C8 17 8 17 6 15 C7.58941406 15.01740234 7.58941406 15.01740234 9.2109375 15.03515625 C10.59895658 15.04453476 11.98697755 15.05363489 13.375 15.0625 C14.42300781 15.07506836 14.42300781 15.07506836 15.4921875 15.08789062 C19.37295376 15.1835442 19.37295376 15.1835442 23 14 C23.33 13.01 23.66 12.02 24 11 C23.01 11.33 22.02 11.66 21 12 C12.33231464 12.84035731 6.12688119 12.15639983 -1 7 C-1.04254356 5.00045254 -1.04080783 2.99958364 -1 1 C-0.67 0.67 -0.34 0.34 0 0 Z " fill="#D79C08" transform="translate(109,111)"/>
<path d="M0 0 C1.32 0.66 2.64 1.32 4 2 C2.34791691 11.3431366 -0.2906759 20.3396965 -2.9375 29.4375 C-3.82297377 32.49830587 -4.70635252 35.55971515 -5.58984375 38.62109375 C-5.80055511 39.34960541 -6.01126648 40.07811707 -6.22836304 40.82870483 C-7.87633545 46.53707581 -9.46532424 52.26004629 -11 58 C-11.66 58 -12.32 58 -13 58 C-15 55 -15 55 -14.93359375 53.13696289 C-13.00178324 44.46568158 -10.49127951 35.96118428 -8 27.4375 C-7.10077236 24.35383992 -6.20461335 21.26931971 -5.3125 18.18359375 C-5.10165771 17.45554535 -4.89081543 16.72749695 -4.67358398 15.97738647 C-3.58017096 12.16236644 -2.57932037 8.35587209 -1.75 4.47265625 C-1 1 -1 1 0 0 Z " fill="#F4D675" transform="translate(107,40)"/>
<path d="M0 0 C0 2.64 0 5.28 0 8 C-0.33 6.68 -0.66 5.36 -1 4 C-1.74765625 4.40992188 -2.4953125 4.81984375 -3.265625 5.2421875 C-4.25046875 5.78101563 -5.2353125 6.31984375 -6.25 6.875 C-7.71179688 7.67550781 -7.71179688 7.67550781 -9.203125 8.4921875 C-12 10 -12 10 -14.296875 10.8828125 C-16.28719678 11.92315346 -16.28719678 11.92315346 -16.75 14.625 C-16.8325 15.40875 -16.915 16.1925 -17 17 C-16.19175781 16.50628906 -15.38351563 16.01257813 -14.55078125 15.50390625 C-13.48214844 14.86324219 -12.41351563 14.22257813 -11.3125 13.5625 C-10.25675781 12.92441406 -9.20101562 12.28632813 -8.11328125 11.62890625 C-5.25478293 10.1333055 -3.18895272 9.29879455 0 9 C0.99 9.33 1.98 9.66 3 10 C2.855625 10.58265625 2.71125 11.1653125 2.5625 11.765625 C1.41623269 16.82830561 1.01600324 21.06234753 1.4375 26.25 C1.5297301 31.39512214 1.5297301 31.39512214 -0.6796875 33.91796875 C-3.0477882 35.5117251 -5.4279541 36.76433337 -8 38 C-9.64838983 38.9539293 -11.29436004 39.91205597 -12.9375 40.875 C-16.72641509 43 -16.72641509 43 -19 43 C-21.70585351 14.20775967 -21.70585351 14.20775967 -17.36376953 7.45556641 C-12.80535987 3.34689413 -6.26578888 0 0 0 Z M-9 15 C-10.3191582 15.69429379 -11.64649406 16.37530495 -13 17 C-13 17.99 -13 18.98 -13 20 C-14.32 19.67 -15.64 19.34 -17 19 C-18.1151293 22.3453879 -18.13299072 24.91758812 -18.125 28.4375 C-18.12757812 29.57058594 -18.13015625 30.70367187 -18.1328125 31.87109375 C-18.02325193 34.45221183 -17.75864877 36.54944405 -17 39 C-12.08410586 37.25565047 -5.74513488 34.74513488 -2 31 C-1.84344973 29.51361008 -1.74933057 28.02050873 -1.68359375 26.52734375 C-1.64169922 25.62822266 -1.59980469 24.72910156 -1.55664062 23.80273438 C-1.51732422 22.85720703 -1.47800781 21.91167969 -1.4375 20.9375 C-1.39431641 19.98810547 -1.35113281 19.03871094 -1.30664062 18.06054688 C-1.20020724 15.70718647 -1.09818992 13.35371646 -1 11 C-4.2598758 11 -6.36029552 13.20500096 -9 15 Z " fill="#366090" transform="translate(60,126)"/>
<path d="M0 0 C5.34754797 1.87633262 5.34754797 1.87633262 7.125 4.9375 C7 7 7 7 5.1875 9.1875 C0.97777936 12.67555425 -2.73644176 12.37998453 -8.06640625 12.3671875 C-11.08523443 11.98933151 -12.16738523 11.63694385 -14.25 9.5 C-14.8275 8.675 -15.405 7.85 -16 7 C-12.87515715 -0.55170355 -7.38250361 -0.86032326 0 0 Z " fill="#9D8889" transform="translate(136,138)"/>
<path d="M0 0 C3.94120709 0.56302958 6.7508723 1.6791945 10 4 C10 4.66 10 5.32 10 6 C12.475 6.99 12.475 6.99 15 8 C15.48225216 11.44944257 15.70121995 14.57239503 15 18 C12.6709458 20.41945128 10.12482394 21.80779809 7 23 C6.34 23 5.68 23 5 23 C4.77718126 21.08496326 4.57228924 19.16783494 4.375 17.25 C4.25898437 16.18265625 4.14296875 15.1153125 4.0234375 14.015625 C3.99970525 10.96207601 4.38579015 9.53837579 6 7 C4.68 7.33 3.36 7.66 2 8 C0.4375 5.6875 0.4375 5.6875 -1 3 C-0.67 2.01 -0.34 1.02 0 0 Z " fill="#F9F0DC" transform="translate(99,125)"/>
<path d="M0 0 C3.375 -0.125 3.375 -0.125 7 0 C9.44951358 2.44951358 9.3494214 3.30424538 9.4375 6.6875 C9.33993904 12.29725513 7.75214569 14.8988175 4 19 C3.01 19.33 2.02 19.66 1 20 C0.67 19.01 0.34 18.02 0 17 C-0.99 17 -1.98 17 -3 17 C-2 14 -2 14 0.0625 12.8125 C1.0215625 12.4103125 1.0215625 12.4103125 2 12 C-0.475 11.01 -0.475 11.01 -3 10 C-2.39009109 6.44219804 -1.4216319 3.3171411 0 0 Z " fill="#F8EFD9" transform="translate(148,103)"/>
<path d="M0 0 C1.29447712 3.88343135 1.5983651 7.21401077 0 11 C-3.12221702 13.54402868 -6.87460752 16 -11 16 C-11.33 14.02 -11.66 12.04 -12 10 C-12.94875 10.020625 -13.8975 10.04125 -14.875 10.0625 C-18 10 -18 10 -20 9 C-19.67 7.35 -19.34 5.7 -19 4 C-13.25 4.875 -13.25 4.875 -11 6 C-8.28873335 4.77667094 -8.28873335 4.77667094 -5.375 3.0625 C-4.37210938 2.49660156 -3.36921875 1.93070312 -2.3359375 1.34765625 C-1.56507812 0.90292969 -0.79421875 0.45820312 0 0 Z " fill="#28224B" transform="translate(108,109)"/>
<path d="M0 0 C4.18957447 1.39652482 6.79281309 4.27544727 9.3125 7.875 C12.27493303 9.84995535 15.60899787 8.54693583 19 8 C20 9 20 9 20.3125 11.1875 C19.87560295 15.11957345 18.61434649 17.05048089 16 20 C12.3125 20.9375 12.3125 20.9375 9 21 C8 20 8 20 7.75 16.8125 C6.850707 12.2410939 4.98785529 10.49797692 2 7 C1.0647731 4.66665612 0.54286554 2.46757065 0 0 Z " fill="#F4EBDA" transform="translate(109,62)"/>
<path d="M0 0 C2 2 2 2 2.23046875 5.73828125 C2.22647364 7.26308287 2.21170023 8.7878852 2.1875 10.3125 C2.18685547 11.07240234 2.18621094 11.83230469 2.18554688 12.61523438 C2.1548959 16.53515315 1.95469922 20.17356553 1 24 C1.99 24 2.98 24 4 24 C4.33 25.65 4.66 27.3 5 29 C3.35 29.33 1.7 29.66 0 30 C0.33 30.66 0.66 31.32 1 32 C-1.475 32.495 -1.475 32.495 -4 33 C-4 32.34 -4 31.68 -4 31 C-5.65 30.67 -7.3 30.34 -9 30 C-9 29.01 -9 28.02 -9 27 C-7.35 27.33 -5.7 27.66 -4 28 C-3.26856335 23.24566179 -2.99063362 18.81275943 -3.125 14 C-3.19351926 8.6006823 -2.25306104 4.88163225 0 0 Z " fill="#284274" transform="translate(125,81)"/>
<path d="M0 0 C2.31 0 4.62 0 7 0 C7.04254356 1.99954746 7.04080783 4.00041636 7 6 C6.67 6.33 6.34 6.66 6 7 C5.97356781 10.34178406 6.02898026 13.66978175 6.12695312 17.00976562 C6.18667203 20.84933984 6.17607309 23.7486908 4 27 C3.01 27 2.02 27 1 27 C-2.48186528 7.44559585 -2.48186528 7.44559585 0 0 Z " fill="#2768A7" transform="translate(117,82)"/>
<path d="M0 0 C0.66 0.33 1.32 0.66 2 1 C-0.05952358 2.29662538 -2.12237057 3.58735727 -4.1875 4.875 C-4.76564453 5.23980469 -5.34378906 5.60460937 -5.93945312 5.98046875 C-9.27301973 8.05217681 -12.31639893 9.52655957 -16 11 C-16 21.89 -16 32.78 -16 44 C-16.99 43.67 -17.98 43.34 -19 43 C-19.33 40.69 -19.66 38.38 -20 36 C-21.65 36 -23.3 36 -25 36 C-24.25 33.125 -24.25 33.125 -23 30 C-20.921875 28.8046875 -20.921875 28.8046875 -19 28 C-19.03222656 26.84242188 -19.06445312 25.68484375 -19.09765625 24.4921875 C-19.12918697 12.47372732 -19.12918697 12.47372732 -16.24609375 8.7109375 C-13.89519425 7.18183069 -11.58408514 6.08492124 -9 5 C-7.34755632 4.03203067 -5.701378 3.05326417 -4.0625 2.0625 C-1.84765625 0.78515625 -1.84765625 0.78515625 0 0 Z " fill="#2A1B3D" transform="translate(57,125)"/>
<path d="M0 0 C0.33 1.65 0.66 3.3 1 5 C-11.48519362 12.85193622 -11.48519362 12.85193622 -18 13 C-18.66 11.68 -19.32 10.36 -20 9 C-19.401875 8.731875 -18.80375 8.46375 -18.1875 8.1875 C-16.00266061 7.14256519 -16.00266061 7.14256519 -14.640625 5.59765625 C-12.75688449 3.76325181 -10.84202609 2.55697955 -8.5625 1.25 C-7.41974609 0.57710938 -7.41974609 0.57710938 -6.25390625 -0.109375 C-3.66585264 -1.13203743 -2.56366999 -0.95772637 0 0 Z " fill="#284274" transform="translate(163,127)"/>
<path d="M0 0 C3.50411265 0.3185557 5.5840105 0.69067447 8.4375 2.8125 C10 5 10 5 10.125 7 C8.30851436 10.2293078 6.30036758 11.34981621 3 13 C-1.80131956 13.85737849 -5.14741494 13.40385608 -9.5625 11.3125 C-12 9 -12 9 -12.625 6.4375 C-11.83665926 3.36297111 -10.67806355 2.59010023 -8 1 C-8 2.32 -8 3.64 -8 5 C-8.66 5 -9.32 5 -10 5 C-10 5.99 -10 6.98 -10 8 C-8.35 8.33 -6.7 8.66 -5 9 C-5 9.66 -5 10.32 -5 11 C-4.443125 10.34 -3.88625 9.68 -3.3125 9 C-1 7 -1 7 1.75 6.75 C2.4925 6.8325 3.235 6.915 4 7 C3.67 5.35 3.34 3.7 3 2 C2.01 2 1.02 2 0 2 C0 1.34 0 0.68 0 0 Z " fill="#F8EED5" transform="translate(126,103)"/>
<path d="M0 0 C0.28230469 0.57363281 0.56460938 1.14726563 0.85546875 1.73828125 C2.66891441 5.32184792 4.46661353 8.86583902 7 12 C9.59855733 12.8042208 9.59855733 12.8042208 12 13 C13.3125 15.0625 13.3125 15.0625 14 17 C11.64031256 19.09749995 10.45383006 19.96905704 7.25 20.1875 C6.13625 20.0946875 6.13625 20.0946875 5 20 C4.87625 19.401875 4.7525 18.80375 4.625 18.1875 C4.04524015 15.73768652 4.04524015 15.73768652 2 13 C1.01 14.485 1.01 14.485 0 16 C-1.5625 14.9375 -1.5625 14.9375 -3 13 C-2.73913095 8.39131346 -1.58042602 4.31983111 0 0 Z " fill="#EEDDCA" transform="translate(115,52)"/>
<path d="M0 0 C0.99 0.33 1.98 0.66 3 1 C3 1.66 3 2.32 3 3 C4.051875 3.37125 4.051875 3.37125 5.125 3.75 C8.4496045 5.19548022 11.15846508 6.73968813 14 9 C14.9375 11.625 14.9375 11.625 15 14 C14.67 14.66 14.34 15.32 14 16 C9.93774452 15.42176904 7.15237654 14.10882263 3.6875 11.9375 C2.80449219 11.38964844 1.92148438 10.84179688 1.01171875 10.27734375 C0.34785156 9.85582031 -0.31601563 9.43429688 -1 9 C-0.67 6.03 -0.34 3.06 0 0 Z " fill="#DDD0C3" transform="translate(79,137)"/>
<path d="M0 0 C1.65 0.33 3.3 0.66 5 1 C4.40272788 8.46590154 3.41112559 19.58887441 -2 25 C-3.5390625 23.77734375 -3.5390625 23.77734375 -5 22 C-4.9609375 19.94140625 -4.9609375 19.94140625 -4.375 17.5625 C-4.065625 16.25345703 -4.065625 16.25345703 -3.75 14.91796875 C-3.5025 13.95503906 -3.255 12.99210937 -3 12 C-2.731875 10.90300781 -2.46375 9.80601563 -2.1875 8.67578125 C-1.47454964 5.77942043 -0.74443352 2.88840206 0 0 Z " fill="#6B95B9" transform="translate(93,69)"/>
<path d="M0 0 C1.32 0.66 2.64 1.32 4 2 C2.44198995 6.22043229 -0.71879909 8.53136168 -4.125 11.25 C-4.68832031 11.70890625 -5.25164062 12.1678125 -5.83203125 12.640625 C-7.21622599 13.76674953 -8.60743411 14.88424385 -10 16 C-12.475 15.01 -12.475 15.01 -15 14 C-13.7622343 10.2867029 -12.25608211 9.37219818 -9.1875 7 C-8.31480469 6.319375 -7.44210938 5.63875 -6.54296875 4.9375 C-4.36939364 3.28144278 -2.19032984 1.63381247 0 0 Z " fill="#FEDB76" transform="translate(117,22)"/>
<path d="M0 0 C1.41377341 2.63904371 2.37240135 5.07120629 3 8 C3.99 7.67 4.98 7.34 6 7 C6.33 7.99 6.66 8.98 7 10 C7.99 9.67 8.98 9.34 10 9 C10 10.32 10 11.64 10 13 C8.54462432 13.83848804 7.08559627 14.67063934 5.625 15.5 C4.40683594 16.19609375 4.40683594 16.19609375 3.1640625 16.90625 C1 18 1 18 -1 18 C-2.13480527 14.39006828 -2.10015767 11.0157673 -2.0625 7.25 C-2.05347656 6.07953125 -2.04445312 4.9090625 -2.03515625 3.703125 C-2.02355469 2.81109375 -2.01195312 1.9190625 -2 1 C-1.34 0.67 -0.68 0.34 0 0 Z " fill="#96A5B5" transform="translate(44,147)"/>
<path d="M0 0 C-0.2165625 0.8353125 -0.2165625 0.8353125 -0.4375 1.6875 C-1.02769128 4.11384195 -1.523429 6.54906345 -2 9 C-0.35 9.33 1.3 9.66 3 10 C1 13 1 13 -2 14 C-2.33 14.66 -2.66 15.32 -3 16 C-2.01 16 -1.02 16 0 16 C0.33 16.99 0.66 17.98 1 19 C-4.42168675 19.48192771 -4.42168675 19.48192771 -6.875 17.4375 C-8.49890816 13.91903232 -8.57831976 11.85546504 -8 8 C-3.41856392 0 -3.41856392 0 0 0 Z " fill="#FBF2DB" transform="translate(148,104)"/>
<path d="M0 0 C2.97 0 5.94 0 9 0 C10.65 3.3 12.3 6.6 14 10 C13.01 10.495 13.01 10.495 12 11 C11.443125 10.690625 10.88625 10.38125 10.3125 10.0625 C7.10425167 8.58843995 4.48580822 8.74179198 1 9 C0.34 9.66 -0.32 10.32 -1 11 C-0.67 7.37 -0.34 3.74 0 0 Z " fill="#DEB7A1" transform="translate(87,122)"/>
<path d="M0 0 C0.495 1.485 0.495 1.485 1 3 C-1.22323368 6.70538946 -3.73497659 8.96494285 -7.81640625 10.4921875 C-14.86747008 12.13196979 -22.15872429 11.95098475 -28.5078125 8.2890625 C-30.87333302 6.24555001 -31.45485116 3.99831863 -32 1 C-31.51273437 1.433125 -31.02546875 1.86625 -30.5234375 2.3125 C-24.56015723 6.9963856 -19.77568148 7.79770836 -12.2578125 7.46484375 C-7.83509067 6.83378392 -5.4852236 5.77233695 -2 3 C-1.34 2.01 -0.68 1.02 0 0 Z " fill="#FEBF06" transform="translate(147,145)"/>
<path d="M0 0 C0 2.64 0 5.28 0 8 C-0.33 6.68 -0.66 5.36 -1 4 C-2.72990025 4.93614567 -4.45888696 5.87397958 -6.1875 6.8125 C-7.63189453 7.59560547 -7.63189453 7.59560547 -9.10546875 8.39453125 C-10.53826172 9.18923828 -10.53826172 9.18923828 -12 10 C-12.928125 10.5053125 -13.85625 11.010625 -14.8125 11.53125 C-17.26141043 12.8404954 -17.26141043 12.8404954 -17.8125 15.6875 C-17.9053125 16.8321875 -17.9053125 16.8321875 -18 18 C-17.34 18.33 -16.68 18.66 -16 19 C-16.33 19.99 -16.66 20.98 -17 22 C-17.03023797 25.55512076 -16.93326842 29.0984692 -16.83984375 32.65234375 C-16.99480163 35.89134142 -17.48122533 37.25272203 -19 40 C-21.70559649 13.97240666 -21.70559649 13.97240666 -17.36376953 7.59765625 C-12.81194481 3.62002224 -6.19746031 0 0 0 Z " fill="#295F9A" transform="translate(60,126)"/>
<path d="M0 0 C0.3267114 4.73731534 0.43181699 7.15178806 -1.75 11.4375 C-3.94435756 13.93662944 -4.75110346 14.76793596 -8 15 C-8 16.65 -8 18.3 -8 20 C-8.66 20.33 -9.32 20.66 -10 21 C-9.55429725 16.27555081 -8.80627492 11.73994654 -7.6875 7.125 C-7.46449219 6.19945312 -7.24148437 5.27390625 -7.01171875 4.3203125 C-6 2 -6 2 -4.01953125 0.6796875 C-2 0 -2 0 0 0 Z " fill="#2F2847" transform="translate(87,122)"/>
<path d="M0 0 C2 1.375 2 1.375 4 3 C4 3.66 4 4.32 4 5 C3.195625 5.45375 2.39125 5.9075 1.5625 6.375 C-1.15236193 7.73420995 -1.15236193 7.73420995 -1.8125 10.1875 C-1.9053125 11.0846875 -1.9053125 11.0846875 -2 12 C-0.88625 11.34 0.2275 10.68 1.375 10 C4.75 8 4.75 8 7 8 C7.5 10.1875 7.5 10.1875 7 13 C4.16114834 15.3981167 0.81204169 18 -3 18 C-4.7610915 6.17005924 -4.7610915 6.17005924 -2.0625 2.25 C-1.381875 1.5075 -0.70125 0.765 0 0 Z " fill="#EFE4D2" transform="translate(107,130)"/>
<path d="M0 0 C0.66 0 1.32 0 2 0 C2.66 1.98 3.32 3.96 4 6 C4.33 6 4.66 6 5 6 C5 7.98 5 9.96 5 12 C3.3125 13.1875 3.3125 13.1875 1 14 C-1.75 12.625 -1.75 12.625 -4 11 C-4.33 11.99 -4.66 12.98 -5 14 C-5.99 14.33 -6.98 14.66 -8 15 C-6.54541216 10.87866779 -4.45283669 7.60260389 -2 4 C-1.30570621 2.6808418 -0.62469505 1.35350594 0 0 Z " fill="#AEC0C8" transform="translate(82,72)"/>
<path d="M0 0 C0.7425 0.61875 1.485 1.2375 2.25 1.875 C6.65910028 5.28203203 9.65985504 6.26042533 15.25 6.625 C16.32765625 6.69976562 17.4053125 6.77453125 18.515625 6.8515625 C19.33546875 6.90054688 20.1553125 6.94953125 21 7 C21 7.99 21 8.98 21 10 C17.20899215 11.89550392 12.82860173 11.44172262 8.80078125 10.46875 C5.6214967 9.38744065 3.43029617 8.41684941 1 6.0625 C0 4 0 4 0 0 Z " fill="#F8BA02" transform="translate(109,111)"/>
<path d="M0 0 C0.29296875 2.30078125 0.29296875 2.30078125 0 5 C-2.01171875 6.73046875 -2.01171875 6.73046875 -4.6875 8.1875 C-5.55761719 8.67605469 -6.42773438 9.16460937 -7.32421875 9.66796875 C-9.84378517 10.92223466 -12.37036462 12.00026475 -15 13 C-15.3984375 10.76953125 -15.3984375 10.76953125 -15 8 C-12.85585564 6.2695849 -10.99909825 5.00727825 -8.625 3.6875 C-8.02171875 3.32849609 -7.4184375 2.96949219 -6.796875 2.59960938 C-2.34040179 0 -2.34040179 0 0 0 Z " fill="#99AEBF" transform="translate(58,130)"/>
<path d="M0 0 C1.9375 1.5 1.9375 1.5 3 3 C1.1746875 3.37125 1.1746875 3.37125 -0.6875 3.75 C-4.59057206 4.71884767 -7.07537592 6.1640009 -10 9 C-10.33 9.66 -10.66 10.32 -11 11 C-12.32 10.34 -13.64 9.68 -15 9 C-15 8.01 -15 7.02 -15 6 C-9.75903306 1.21476931 -7.136887 -0.50083418 0 0 Z " fill="#FABC03" transform="translate(152,96)"/>
<path d="M0 0 C3.625 1.5 3.625 1.5 6 3 C5.67 3.66 5.34 4.32 5 5 C3.35 4.34 1.7 3.68 0 3 C-0.33 3.66 -0.66 4.32 -1 5 C-3.32375692 5.39460023 -5.6593935 5.72230092 -8 6 C-9.33917261 6.30903983 -10.67653254 6.62942911 -12 7 C-11.67 6.01 -11.34 5.02 -11 4 C-12.98 4.99 -12.98 4.99 -15 6 C-11.98044866 -0.9681954 -6.79736788 -0.72716028 0 0 Z " fill="#8AA5B7" transform="translate(136,138)"/>
<path d="M0 0 C0.33 0.66 0.66 1.32 1 2 C6.7974423 2.24428343 6.7974423 2.24428343 12 0 C10.6549765 4.40189509 8.87257737 6.51048598 5 9 C3.68 9 2.36 9 1 9 C1 8.01 1 7.02 1 6 C0.38125 5.896875 -0.2375 5.79375 -0.875 5.6875 C-3 5 -3 5 -5 2 C-3.35 1.34 -1.7 0.68 0 0 Z " fill="#3B4267" transform="translate(95,130)"/>
<path d="M0 0 C1.32 0.33 2.64 0.66 4 1 C3.0022242 3.99332739 2.2477975 4.94766315 0 7 C1.65 7 3.3 7 5 7 C4.48964169 11.3890815 3.47785723 14.33708062 1 18 C0.67 17.34 0.34 16.68 0 16 C-0.99 16 -1.98 16 -3 16 C-2 13 -2 13 0.0625 11.8125 C1.0215625 11.4103125 1.0215625 11.4103125 2 11 C-0.475 10.01 -0.475 10.01 -3 9 C-2.44271087 5.65626525 -1.64826111 2.96687001 0 0 Z " fill="#472938" transform="translate(148,104)"/>
<path d="M0 0 C-0.47603774 2.12570312 -0.95592598 4.25054427 -1.4375 6.375 C-1.70433594 7.55835938 -1.97117187 8.74171875 -2.24609375 9.9609375 C-3 13 -3 13 -4 15 C-6.475 14.01 -6.475 14.01 -9 13 C-7.83184539 3.70706859 -7.83184539 3.70706859 -4.5 0.875 C-2 0 -2 0 0 0 Z " fill="#6994B9" transform="translate(103,54)"/>
<path d="M0 0 C0.33 0 0.66 0 1 0 C1 23.1 1 46.2 1 70 C0.67 70 0.34 70 0 70 C0 46.9 0 23.8 0 0 Z " fill="#85A6C1" transform="translate(26,88)"/>
<path d="M0 0 C0.66 0 1.32 0 2 0 C2.28527105 3.37887713 2.45018698 6.63173355 2 10 C-0.43850852 12.18182341 -1.7321149 13 -5 13 C-5 9.7 -5 6.4 -5 3 C-3.68 2.34 -2.36 1.68 -1 1 C-0.67 0.67 -0.34 0.34 0 0 Z " fill="#BBC3C7" transform="translate(52,140)"/>
<path d="M0 0 C0.33 0.99 0.66 1.98 1 3 C2.65 3 4.3 3 6 3 C5.01 3.66 4.02 4.32 3 5 C3.825 5.433125 4.65 5.86625 5.5 6.3125 C6.325 6.869375 7.15 7.42625 8 8 C8 8.99 8 9.98 8 11 C8.99 11.33 9.98 11.66 11 12 C8.1473205 12.61808056 5.87573686 13.10955188 3 13 C0.4375 11.0625 0.4375 11.0625 -1 8 C-1.01566698 5.1694997 -0.57007254 2.80285663 0 0 Z " fill="#D28A6B" transform="translate(88,128)"/>
<path d="M0 0 C1.32 0.66 2.64 1.32 4 2 C2.91226341 8.08273749 1.5410258 14.080661 0 20.0625 C-0.1659668 20.72967041 -0.33193359 21.39684082 -0.50292969 22.08422852 C-0.93894441 23.74069897 -1.46274477 25.37354373 -2 27 C-2.66 27.33 -3.32 27.66 -4 28 C-3.69024532 26.22868439 -3.37709575 24.45796222 -3.0625 22.6875 C-2.80146484 21.20830078 -2.80146484 21.20830078 -2.53515625 19.69921875 C-2 17 -2 17 -1 14 C-0.95550861 11.7921149 -0.96083395 9.58298599 -1 7.375 C-1.03752174 5.25033129 -1.04682059 3.12448413 -1 1 C-0.67 0.67 -0.34 0.34 0 0 Z " fill="#FDDD82" transform="translate(107,40)"/>
<path d="M0 0 C0.061875 1.093125 0.12375 2.18625 0.1875 3.3125 C0.6179364 7.08821419 0.6179364 7.08821419 3.3125 8.875 C5.55993531 9.81578687 7.60969782 10.55735145 10 11 C9.67 11.99 9.34 12.98 9 14 C9 13.34 9 12.68 9 12 C8.44828125 12.22300781 7.8965625 12.44601563 7.328125 12.67578125 C4.02631422 13.13559718 2.5399832 11.92920004 -0.25 10.1875 C-1.14203125 9.64480469 -2.0340625 9.10210937 -2.953125 8.54296875 C-3.62859375 8.03378906 -4.3040625 7.52460938 -5 7 C-5 6.34 -5 5.68 -5 5 C-5.66 4.67 -6.32 4.34 -7 4 C-2.25 0 -2.25 0 0 0 Z " fill="#FBF3DE" transform="translate(87,133)"/>
<path d="M0 0 C0.33 1.65 0.66 3.3 1 5 C-0.65 5.33 -2.3 5.66 -4 6 C-3.67 6.66 -3.34 7.32 -3 8 C-4.65 8.33 -6.3 8.66 -8 9 C-8 8.34 -8 7.68 -8 7 C-9.65 6.67 -11.3 6.34 -13 6 C-13 5.01 -13 4.02 -13 3 C-10.36 3 -7.72 3 -5 3 C-5 2.34 -5 1.68 -5 1 C-2 0 -2 0 0 0 Z " fill="#4F394A" transform="translate(129,105)"/>
<path d="M0 0 C0.33 0.99 0.66 1.98 1 3 C-1.28874173 4.33858524 -3.58069656 5.67101014 -5.875 7 C-6.52597656 7.3815625 -7.17695312 7.763125 -7.84765625 8.15625 C-12.7734375 11 -12.7734375 11 -15 11 C-14.67 8.69 -14.34 6.38 -14 4 C-13.67 4.99 -13.34 5.98 -13 7 C-8.71 4.69 -4.42 2.38 0 0 Z " fill="#37699F" transform="translate(56,158)"/>
<path d="M0 0 C0.33 0.99 0.66 1.98 1 3 C1.99 2.67 2.98 2.34 4 2 C4 3.32 4 4.64 4 6 C0.535 7.485 0.535 7.485 -3 9 C-3 7.68 -3 6.36 -3 5 C-4.32 5.33 -5.64 5.66 -7 6 C-6.75 4.125 -6.75 4.125 -6 2 C-3.85331506 0.61504198 -2.56128588 0 0 0 Z " fill="#CBD0CD" transform="translate(50,154)"/>
<path d="M0 0 C2.0625 0.4375 2.0625 0.4375 4 1 C4.93423645 4.01031744 5.04449911 4.86650268 4 8 C6.31 7.34 8.62 6.68 11 6 C10.67 7.98 10.34 9.96 10 12 C8.68 12.33 7.36 12.66 6 13 C6.33 11.68 6.66 10.36 7 9 C6.01 9.66 5.02 10.32 4 11 C3.01 10.67 2.02 10.34 1 10 C1.66 10 2.32 10 3 10 C1.87302957 5.03088634 1.87302957 5.03088634 -1 1 C-0.67 0.67 -0.34 0.34 0 0 Z " fill="#8C9EAC" transform="translate(43,145)"/>
<path d="M0 0 C0.33 0.99 0.66 1.98 1 3 C-1.79196011 6.28465896 -5.23196817 8.01321958 -9 10 C-9.66 10 -10.32 10 -11 10 C-11 8.68 -11 7.36 -11 6 C-7.37 4.02 -3.74 2.04 0 0 Z " fill="#2B4272" transform="translate(108,109)"/>
<path d="M0 0 C1.20628008 2.33214148 2.1654738 4.49642139 3 7 C2.34 7 1.68 7 1 7 C1 9.97 1 12.94 1 16 C-0.32 15.01 -1.64 14.02 -3 13 C-2.45144652 8.428721 -1.58255197 4.32564205 0 0 Z " fill="#354A71" transform="translate(115,52)"/>
<path d="M0 0 C5.75 0.75 5.75 0.75 8 3 C8.125 6.625 8.125 6.625 8 10 C7.67 8.68 7.34 7.36 7 6 C6.05125 6.020625 5.1025 6.04125 4.125 6.0625 C1 6 1 6 -1 5 C-0.67 3.35 -0.34 1.7 0 0 Z " fill="#573B4E" transform="translate(89,113)"/>
<path d="M0 0 C1.75 2 1.75 2 2.1875 5.4375 C1.74490804 9.04146306 1.21704919 10.43015709 -1.25 13 C-1.58 10.36 -1.91 7.72 -2.25 5 C-4.56 4.34 -6.87 3.68 -9.25 3 C-7.70543876 1.22375457 -6.46987969 0.0993005 -4.3125 -0.875 C-2.25 -1 -2.25 -1 0 0 Z " fill="#FED767" transform="translate(158.25,100)"/>
<path d="M0 0 C1.0354051 3.1848935 0.94040666 5.13031874 0.00390625 8.328125 C-0.33930664 9.52695313 -0.33930664 9.52695313 -0.68945312 10.75 C-0.93630859 11.575 -1.18316406 12.4 -1.4375 13.25 C-1.68048828 14.09046875 -1.92347656 14.9309375 -2.17382812 15.796875 C-2.77373949 17.86715734 -3.38570819 19.93393897 -4 22 C-4.66 22 -5.32 22 -6 22 C-8 19 -8 19 -8 16 C-6.35 15.34 -4.7 14.68 -3 14 C-2.814375 12.205625 -2.814375 12.205625 -2.625 10.375 C-2.17674946 6.72403187 -1.29553163 3.45475101 0 0 Z " fill="#FADD86" transform="translate(100,76)"/>
<path d="M0 0 C0 4.95 0 9.9 0 15 C-0.33 15 -0.66 15 -1 15 C-1.33 12.69 -1.66 10.38 -2 8 C-3.65 8 -5.3 8 -7 8 C-5.52631579 2.35087719 -5.52631579 2.35087719 -2.9375 0.625 C-1 0 -1 0 0 0 Z " fill="#262B54" transform="translate(39,153)"/>
<path d="M0 0 C0.66 0 1.32 0 2 0 C2 0.99 2 1.98 2 3 C3.98 3.66 5.96 4.32 8 5 C5 6 5 6 2 5 C1.87625 5.969375 1.7525 6.93875 1.625 7.9375 C1.41875 8.948125 1.2125 9.95875 1 11 C0.01 11.495 0.01 11.495 -1 12 C-1.92470553 7.28400182 -2.22923777 4.32734391 0 0 Z " fill="#AEC1CC" transform="translate(91,64)"/>
<path d="M0 0 C1.65 1.65 3.3 3.3 5 5 C5 4.34 5 3.68 5 3 C5.99 2.67 6.98 2.34 8 2 C9 6.875 9 6.875 9 8 C5.65747276 8.07427838 3.1964086 8.06546953 0 7 C0 4.69 0 2.38 0 0 Z " fill="#2E081E" transform="translate(98,152)"/>
<path d="M0 0 C0 4.29 0 8.58 0 13 C-0.99 13.33 -1.98 13.66 -3 14 C-3 9.71 -3 5.42 -3 1 C-1 0 -1 0 0 0 Z " fill="#E6E3D7" transform="translate(58,144)"/>
<path d="M0 0 C1.9375 0.1875 1.9375 0.1875 4 1 C5.25 3.0625 5.25 3.0625 6 5 C4 7 4 7 1.375 7.125 C0.59125 7.08375 -0.1925 7.0425 -1 7 C-1.04254356 5.00045254 -1.04080783 2.99958364 -1 1 C-0.67 0.67 -0.34 0.34 0 0 Z " fill="#5D3542" transform="translate(123,64)"/>
<path d="M0 0 C0.66 0.33 1.32 0.66 2 1 C2.4140625 3.28515625 2.4140625 3.28515625 2.625 6.0625 C2.69976562 6.98160156 2.77453125 7.90070313 2.8515625 8.84765625 C2.90054688 9.55792969 2.94953125 10.26820313 3 11 C1.68 10.67 0.36 10.34 -1 10 C-1 7.69 -1 5.38 -1 3 C-1.99 2.67 -2.98 2.34 -4 2 C-2.125 0.9375 -2.125 0.9375 0 0 Z " fill="#F9A073" transform="translate(99,139)"/>
<path d="M0 0 C0.66 0 1.32 0 2 0 C1.9375 1.8125 1.9375 1.8125 1 4 C-0.70285119 4.72043704 -2.40991907 5.43402168 -4.14453125 6.07421875 C-7.31662991 7.65692903 -8.92861451 10.17538342 -11 13 C-12 11 -12 11 -11.0625 8.125 C-8.64947818 4.46890633 -6.6612213 3.46283782 -2.7421875 1.76171875 C-1.008123 1.12966247 -1.008123 1.12966247 0 0 Z " fill="#E2E4D9" transform="translate(60,98)"/>
<path d="M0 0 C2 1.375 2 1.375 4 3 C4 3.66 4 4.32 4 5 C3.195625 5.33 2.39125 5.66 1.5625 6 C-1.2048032 7.72634103 -1.2048032 7.72634103 -1.5546875 10.41796875 C-1.79042519 12.95036306 -1.94752861 15.45752277 -2 18 C-2.33 18 -2.66 18 -3 18 C-4.7610915 6.17005924 -4.7610915 6.17005924 -2.0625 2.25 C-1.381875 1.5075 -0.70125 0.765 0 0 Z " fill="#E9D9C8" transform="translate(107,130)"/>
<path d="M0 0 C2.88437779 1.29299694 4.87219421 2.65941363 7 5 C6.67 5.99 6.34 6.98 6 8 C1.125 7.125 1.125 7.125 0 6 C-0.04080783 4.00041636 -0.04254356 1.99954746 0 0 Z " fill="#7395AA" transform="translate(86,106)"/>
<path d="M0 0 C0.66 0 1.32 0 2 0 C2.66 1.98 3.32 3.96 4 6 C4.33 6 4.66 6 5 6 C5 7.98 5 9.96 5 12 C4.01 12 3.02 12 2 12 C1.67 10.02 1.34 8.04 1 6 C0.01 6 -0.98 6 -2 6 C-1.34 4.02 -0.68 2.04 0 0 Z " fill="#E6E6DA" transform="translate(82,72)"/>
<path d="M0 0 C-0.57344937 2.86724686 -0.8614515 3.8614515 -3 6 C-5.0625 5.8125 -5.0625 5.8125 -7 5 C-7.33 4.01 -7.66 3.02 -8 2 C-4.91190305 0.23537317 -3.76687864 0 0 0 Z " fill="#2B6BA8" transform="translate(151,134)"/>
<path d="M0 0 C2.475 0.99 2.475 0.99 5 2 C4.67 2.99 4.34 3.98 4 5 C4.99 5.99 5.98 6.98 7 8 C5.68 7.67 4.36 7.34 3 7 C2.67 8.32 2.34 9.64 2 11 C0.80712589 7.12315913 0 4.08378077 0 0 Z " fill="#ECAF02" transform="translate(108,118)"/>
<path d="M0 0 C0.515625 0.61875 1.03125 1.2375 1.5625 1.875 C4.54458615 4.47476742 7.18446201 5.11949123 11 6 C11 7.98 11 9.96 11 12 C10.67 10.68 10.34 9.36 10 8 C9.0925 7.896875 8.185 7.79375 7.25 7.6875 C3.94089154 6.98749629 2.33045744 6.42009042 0 4 C0 2.68 0 1.36 0 0 Z " fill="#DBC7B7" transform="translate(87,136)"/>
<path d="M0 0 C0.33 0.99 0.66 1.98 1 3 C-1.64738916 4.4606285 -2.89448334 5 -6 5 C-6.33 3.35 -6.66 1.7 -7 0 C-3.89953913 -1.03348696 -2.94389782 -1.17755913 0 0 Z " fill="#F2E6D4" transform="translate(97,123)"/>
<path d="M0 0 C0 2.64 0 5.28 0 8 C-0.66 7.01 -1.32 6.02 -2 5 C-4.475 6.485 -4.475 6.485 -7 8 C-6.75 5.125 -6.75 5.125 -6 2 C-3.84139132 0.46808416 -2.63707871 0 0 0 Z " fill="#4B4F68" transform="translate(87,122)"/>
<path d="M0 0 C0.33 1.32 0.66 2.64 1 4 C3.64 2.68 6.28 1.36 9 0 C9.33 1.32 9.66 2.64 10 4 C8.68 4 7.36 4 6 4 C5.67 4.99 5.34 5.98 5 7 C2.525 6.01 2.525 6.01 0 5 C0 3.35 0 1.7 0 0 Z " fill="#4A739D" transform="translate(42,139)"/>
<path d="M0 0 C0.721875 0.103125 1.44375 0.20625 2.1875 0.3125 C2.5175 1.3025 2.8475 2.2925 3.1875 3.3125 C2.115 3.456875 1.0425 3.60125 -0.0625 3.75 C-2.72912949 4.14999442 -5.22649729 4.58841924 -7.8125 5.3125 C-3.50480769 0.38942308 -3.50480769 0.38942308 0 0 Z " fill="#F5EBD8" transform="translate(131.8125,139.6875)"/>
<path d="M0 0 C0.33 0 0.66 0 1 0 C1 9.24 1 18.48 1 28 C0.67 28 0.34 28 0 28 C0 18.76 0 9.52 0 0 Z " fill="#FEBF04" transform="translate(123,25)"/>
<path d="M0 0 C0 2.31 0 4.62 0 7 C-0.99 7.33 -1.98 7.66 -3 8 C-4 7 -4 7 -4.0625 3.9375 C-4.041875 2.968125 -4.02125 1.99875 -4 1 C-2 0 -2 0 0 0 Z " fill="#9CADBC" transform="translate(59,137)"/>
<path d="M0 0 C0.33 0.66 0.66 1.32 1 2 C1.66 2 2.32 2 3 2 C3 2.99 3 3.98 3 5 C1.35 5.33 -0.3 5.66 -2 6 C-2.99 4.68 -3.98 3.36 -5 2 C-3.35 1.34 -1.7 0.68 0 0 Z " fill="#2A5C95" transform="translate(95,130)"/>
<path d="M0 0 C7.57142857 1.85714286 7.57142857 1.85714286 10 5 C8.35 5.33 6.7 5.66 5 6 C5 5.34 5 4.68 5 4 C3.35 3.67 1.7 3.34 0 3 C0 2.01 0 1.02 0 0 Z " fill="#45283B" transform="translate(116,108)"/>
<path d="M0 0 C5.75 1.625 5.75 1.625 8 5 C7.67 5.66 7.34 6.32 7 7 C4.08482708 5.92598892 2.22189824 5.22189824 0 3 C0 2.01 0 1.02 0 0 Z " fill="#E4D7C9" transform="translate(84,146)"/>
<path d="M0 0 C0 1.65 0 3.3 0 5 C-1.65 5.66 -3.3 6.32 -5 7 C-5.1875 4.625 -5.1875 4.625 -5 2 C-2 0 -2 0 0 0 Z " fill="#B3C0C8" transform="translate(58,130)"/>
<path d="M0 0 C0.61875 0.165 1.2375 0.33 1.875 0.5 C4.16786836 1.23577017 4.16786836 1.23577017 7 0 C7 1.32 7 2.64 7 4 C6.071875 3.979375 5.14375 3.95875 4.1875 3.9375 C0.97713989 3.84230396 0.97713989 3.84230396 -2 5 C-1.125 1.125 -1.125 1.125 0 0 Z " fill="#F1EEDE" transform="translate(66,88)"/>
<path d="M0 0 C1.32 0.33 2.64 0.66 4 1 C3.47535095 5.61691161 2.92509086 7.09987886 0 11 C0 7.37 0 3.74 0 0 Z " fill="#F3D36F" transform="translate(60,146)"/>
<path d="M0 0 C0.66 0.33 1.32 0.66 2 1 C1.34 1.66 0.68 2.32 0 3 C0.33 3.66 0.66 4.32 1 5 C0.34 5 -0.32 5 -1 5 C-1.33 5.99 -1.66 6.98 -2 8 C-2.99 6.68 -3.98 5.36 -5 4 C-3.73293765 1.46587529 -2.59334288 1.02161992 0 0 Z " fill="#A3908D" transform="translate(125,141)"/>
<path d="M0 0 C2.97 0.495 2.97 0.495 6 1 C5 4 5 4 3 7 C3 6.01 3 5.02 3 4 C1.02 4.33 -0.96 4.66 -3 5 C-2.67 4.34 -2.34 3.68 -2 3 C-1.34 3 -0.68 3 0 3 C0 2.01 0 1.02 0 0 Z " fill="#EAAC02" transform="translate(130,118)"/>
<path d="M0 0 C-0.875 5.75 -0.875 5.75 -2 8 C-2.99 8 -3.98 8 -5 8 C-4.74438677 5.6568787 -4.40729228 3.32156597 -4 1 C-2 0 -2 0 0 0 Z " fill="#517DA3" transform="translate(123,101)"/>
<path d="M0 0 C1.66666667 0 3.33333333 0 5 0 C4.67 1.98 4.34 3.96 4 6 C3.01 6.33 2.02 6.66 1 7 C0.67 4.69 0.34 2.38 0 0 Z " fill="#B4C5CD" transform="translate(84,72)"/>
<path d="M0 0 C0 1.65 0 3.3 0 5 C-0.99 4.67 -1.98 4.34 -3 4 C-5.00875442 4.27571139 -7.01178687 4.60235737 -9 5 C-2.87096774 0 -2.87096774 0 0 0 Z " fill="#9FB6C6" transform="translate(96,58)"/>
<path d="M0 0 C0.66 0 1.32 0 2 0 C2.28875 0.61875 2.5775 1.2375 2.875 1.875 C3.93720042 4.13325765 3.93720042 4.13325765 6 6 C3.69 5.67 1.38 5.34 -1 5 C-0.67 3.35 -0.34 1.7 0 0 Z " fill="#442439" transform="translate(89,113)"/>
<path d="M0 0 C-1.65 0.66 -3.3 1.32 -5 2 C-5 3.65 -5 5.3 -5 7 C-5.99 7.495 -5.99 7.495 -7 8 C-6.4140625 1.84765625 -6.4140625 1.84765625 -6 0 C-3.50907189 -1.24546405 -2.58919267 -0.7767578 0 0 Z " fill="#496D94" transform="translate(84,135)"/>
<path d="M0 0 C2.97 0.495 2.97 0.495 6 1 C6 1.99 6 2.98 6 4 C4.68 4.33 3.36 4.66 2 5 C1.34 3.35 0.68 1.7 0 0 Z " fill="#EDE1D0" transform="translate(99,128)"/>
<path d="M0 0 C3.41158256 1.13719419 4.11854601 2.04342944 6 5 C6 5.66 6 6.32 6 7 C5.01 7.33 4.02 7.66 3 8 C0 2.25 0 2.25 0 0 Z " fill="#E8E1D2" transform="translate(109,62)"/>
<path d="M0 0 C0.99 0.33 1.98 0.66 3 1 C2.39009109 4.55780196 1.4216319 7.6828589 0 11 C-1.35015859 6.94952424 -0.62084998 4.2079832 0 0 Z " fill="#F89765" transform="translate(87,122)"/>
<path d="M0 0 C6.75 0.875 6.75 0.875 9 2 C9 2.66 9 3.32 9 4 C3.46153846 3.38461538 3.46153846 3.38461538 1.125 1.4375 C0.75375 0.963125 0.3825 0.48875 0 0 Z " fill="#FED45A" transform="translate(111,113)"/>
<path d="M0 0 C0.99 0.33 1.98 0.66 3 1 C3.6875 3.0625 3.6875 3.0625 4 5 C3.01 5 2.02 5 1 5 C1 5.66 1 6.32 1 7 C0.01 7.33 -0.98 7.66 -2 8 C-1.34 5.36 -0.68 2.72 0 0 Z " fill="#344A77" transform="translate(123,101)"/>
<path d="M0 0 C3.96 0 7.92 0 12 0 C11.67 0.99 11.34 1.98 11 3 C10.484375 2.855625 9.96875 2.71125 9.4375 2.5625 C6.31490429 1.84190099 3.17449308 1.42733561 0 1 C0 0.67 0 0.34 0 0 Z " fill="#FDD254" transform="translate(127,135)"/>
<path d="M0 0 C0 1.98 0 3.96 0 6 C-1.98 5.34 -3.96 4.68 -6 4 C-2.25 0 -2.25 0 0 0 Z " fill="#F1EAD8" transform="translate(87,133)"/>
<path d="M0 0 C2.31 0 4.62 0 7 0 C7 0.99 7 1.98 7 3 C5.02 3 3.04 3 1 3 C0.67 2.01 0.34 1.02 0 0 Z " fill="#DC8862" transform="translate(89,119)"/>
<path d="M0 0 C0.33 0 0.66 0 1 0 C1.25 7.625 1.25 7.625 -1 11 C-1.66 10.67 -2.32 10.34 -3 10 C-2.67 8.35 -2.34 6.7 -2 5 C-1.67 5 -1.34 5 -1 5 C-0.67 3.35 -0.34 1.7 0 0 Z " fill="#FEF5E0" transform="translate(156,107)"/>
<path d="M0 0 C1.20628008 2.33214148 2.1654738 4.49642139 3 7 C2.01 7.33 1.02 7.66 0 8 C-0.66 7.34 -1.32 6.68 -2 6 C-1.34 4.02 -0.68 2.04 0 0 Z " fill="#AE7A67" transform="translate(115,52)"/>
<path d="M0 0 C1.76462683 3.08809695 2 4.23312136 2 8 C1.01 8.33 0.02 8.66 -1 9 C-1.09765625 2.84765625 -1.09765625 2.84765625 -1 1 C-0.67 0.67 -0.34 0.34 0 0 Z " fill="#D6D9D3" transform="translate(44,147)"/>
<path d="M0 0 C1.134375 0.020625 2.26875 0.04125 3.4375 0.0625 C1.33967213 2.16032787 0.0575793 2.7134396 -2.6875 3.6875 C-3.41195312 3.94789063 -4.13640625 4.20828125 -4.8828125 4.4765625 C-5.71425781 4.76660156 -5.71425781 4.76660156 -6.5625 5.0625 C-4.14811644 0.07277397 -4.14811644 0.07277397 0 0 Z " fill="#809FB9" transform="translate(127.5625,138.9375)"/>
<path d="M0 0 C2.99324263 1.0975223 3.84610901 1.67682892 5.25 4.625 C5.4975 5.40875 5.745 6.1925 6 7 C3.00675737 5.9024777 2.15389099 5.32317108 0.75 2.375 C0.5025 1.59125 0.255 0.8075 0 0 Z " fill="#456794" transform="translate(87,134)"/>
<path d="M0 0 C0.66 0.66 1.32 1.32 2 2 C1.34 3.32 0.68 4.64 0 6 C-0.33 5.34 -0.66 4.68 -1 4 C-1.99 4 -2.98 4 -4 4 C-3.67 3.01 -3.34 2.02 -3 1 C-2.01 0.67 -1.02 0.34 0 0 Z " fill="#5A424A" transform="translate(149,116)"/>
<path d="M0 0 C0.66 0 1.32 0 2 0 C2 0.99 2 1.98 2 3 C3.98 3.66 5.96 4.32 8 5 C4.23375329 6.25541557 2.62811066 5.37061958 -1 4 C-0.67 2.68 -0.34 1.36 0 0 Z " fill="#E8E7DA" transform="translate(91,64)"/>
<path d="M0 0 C2.6855594 2.6855594 3.06049974 5.37621328 4 9 C3.01 8.67 2.02 8.34 1 8 C-0.35439668 5.29120665 -0.06501451 2.99066732 0 0 Z " fill="#EA8C5E" transform="translate(99,148)"/>
<path d="M0 0 C1.65 0 3.3 0 5 0 C5.33 0.99 5.66 1.98 6 3 C3.36 3 0.72 3 -2 3 C-1.34 2.67 -0.68 2.34 0 2 C0 1.34 0 0.68 0 0 Z " fill="#F5B600" transform="translate(122,119)"/>
<path d="M0 0 C0.33 1.32 0.66 2.64 1 4 C0.34 4 -0.32 4 -1 4 C-1 5.32 -1 6.64 -1 8 C-1.66 8 -2.32 8 -3 8 C-3.36923077 3.44615385 -3.36923077 3.44615385 -1.5 1.1875 C-1.005 0.795625 -0.51 0.40375 0 0 Z " fill="#EEE8D7" transform="translate(117,104)"/>
<path d="M0 0 C0.99 0.33 1.98 0.66 3 1 C2.34 2.65 1.68 4.3 1 6 C0.34 6 -0.32 6 -1 6 C-1.042721 4.33388095 -1.04063832 2.66617115 -1 1 C-0.67 0.67 -0.34 0.34 0 0 Z " fill="#B2C0C7" transform="translate(44,137)"/>
<path d="M0 0 C1.65 0 3.3 0 5 0 C5 0.66 5 1.32 5 2 C3.02 2.66 1.04 3.32 -1 4 C-0.67 2.68 -0.34 1.36 0 0 Z " fill="#294171" transform="translate(47,81)"/>
<path d="M0 0 C3.96 0 7.92 0 12 0 C12 0.33 12 0.66 12 1 C8.04 1 4.08 1 0 1 C0 0.67 0 0.34 0 0 Z " fill="#FEBE00" transform="translate(125,157)"/>
<path d="M0 0 C0.33 0 0.66 0 1 0 C1 1.98 1 3.96 1 6 C0.34 5.34 -0.32 4.68 -1 4 C-0.625 1.875 -0.625 1.875 0 0 Z " fill="#E4BD34" transform="translate(107,122)"/>
<path d="M0 0 C0.33 0 0.66 0 1 0 C1 2.31 1 4.62 1 7 C0.67 7 0.34 7 0 7 C0 4.69 0 2.38 0 0 Z " fill="#284375" transform="translate(128,83)"/>
<path d="M0 0 C0.99 0.495 0.99 0.495 2 1 C1.34 2.32 0.68 3.64 0 5 C0 3.35 0 1.7 0 0 Z " fill="#E9A481" transform="translate(106,148)"/>
<path d="M0 0 C1.98 0 3.96 0 6 0 C6 0.33 6 0.66 6 1 C4.02 1 2.04 1 0 1 C0 0.67 0 0.34 0 0 Z " fill="#F8B800" transform="translate(145,94)"/>
<path d="M0 0 C0.33 0 0.66 0 1 0 C1 1.65 1 3.3 1 5 C0.67 5 0.34 5 0 5 C0 3.35 0 1.7 0 0 Z " fill="#FECA31" transform="translate(149,143)"/>
<path d="M0 0 C4 1 4 1 4 1 Z " fill="#283E6E" transform="translate(39,170)"/>
<path d="M0 0 C4 1 4 1 4 1 Z " fill="#291B3B" transform="translate(33,162)"/>
<path d="M0 0 C4 1 4 1 4 1 Z " fill="#D2C072" transform="translate(60,159)"/>
<path d="M0 0 C0.33 0.66 0.66 1.32 1 2 C0.01 1.67 -0.98 1.34 -2 1 C-1.34 0.67 -0.68 0.34 0 0 Z " fill="#A18E8B" transform="translate(96,154)"/>
<path d="M0 0 C0.99 0.33 1.98 0.66 3 1 C2.01 1 1.02 1 0 1 C0 0.67 0 0.34 0 0 Z " fill="#FACE55" transform="translate(115,138)"/>
<path d="M0 0 C4 1 4 1 4 1 Z " fill="#FFD250" transform="translate(143,129)"/>
<path d="M0 0 C0.66 0 1.32 0 2 0 C2 0.66 2 1.32 2 2 C1.34 2 0.68 2 0 2 C0 1.34 0 0.68 0 0 Z " fill="#938B93" transform="translate(102,123)"/>
<path d="M0 0 C1 4 1 4 1 4 Z " fill="#FED458" transform="translate(162,110)"/>
<path d="M0 0 C1 4 1 4 1 4 Z " fill="#D0CCC7" transform="translate(127,78)"/>
<path d="M0 0 C0.66 0.66 1.32 1.32 2 2 C1.01 2.495 1.01 2.495 0 3 C0 2.01 0 1.02 0 0 Z " fill="#746948" transform="translate(117,52)"/>
<path d="" fill="#28011D" transform="translate(0,0)"/>
<path d="M0 0 C0.66 0.66 1.32 1.32 2 2 C1.34 2 0.68 2 0 2 C0 1.34 0 0.68 0 0 Z " fill="#EBBF44" transform="translate(77,146)"/>
<path d="M0 0 C0.33 0.66 0.66 1.32 1 2 C0.34 1.67 -0.32 1.34 -1 1 C-0.67 0.67 -0.34 0.34 0 0 Z " fill="#285790" transform="translate(146,132)"/>
<path d="" fill="#284274" transform="translate(0,0)"/>
<path d="M0 0 C3 1 3 1 3 1 Z " fill="#293F6F" transform="translate(159,124)"/>
<path d="" fill="#FFD357" transform="translate(0,0)"/>
<path d="M0 0 C0.66 0.66 1.32 1.32 2 2 C1.34 2 0.68 2 0 2 C0 1.34 0 0.68 0 0 Z " fill="#958C61" transform="translate(128,97)"/>
<path d="M0 0 C2 1 2 1 2 1 Z " fill="#28609C" transform="translate(43,169)"/>
<path d="M0 0 C2 1 2 1 2 1 Z " fill="#285F9A" transform="translate(48,166)"/>
<path d="M0 0 C2 1 2 1 2 1 Z " fill="#29609B" transform="translate(50,165)"/>
<path d="M0 0 C2 1 2 1 2 1 Z " fill="#2A619B" transform="translate(55,162)"/>
<path d="M0 0 C2 1 2 1 2 1 Z " fill="#28011C" transform="translate(102,161)"/>
<path d="M0 0 C2 1 2 1 2 1 Z " fill="#28609C" transform="translate(57,161)"/>
<path d="M0 0 C2 1 2 1 2 1 Z " fill="#8DA7B8" transform="translate(29,160)"/>
<path d="M0 0 C2 1 2 1 2 1 Z " fill="#FFC00F" transform="translate(64,158)"/>
<path d="M0 0 C2 1 2 1 2 1 Z " fill="#FFBE00" transform="translate(138,156)"/>
<path d="M0 0 C2 1 2 1 2 1 Z " fill="#FEBE00" transform="translate(122,156)"/>
<path d="M0 0 C2 1 2 1 2 1 Z " fill="#FFBE00" transform="translate(140,155)"/>
<path d="M0 0 C2 1 2 1 2 1 Z " fill="#FEBE00" transform="translate(120,155)"/>
<path d="M0 0 C2 1 2 1 2 1 Z " fill="#DCCDC0" transform="translate(91,155)"/>
<path d="M0 0 C2 1 2 1 2 1 Z " fill="#FFBF00" transform="translate(69,155)"/>
<path d="M0 0 C2 1 2 1 2 1 Z " fill="#FEBE00" transform="translate(142,154)"/>
<path d="M0 0 C2 1 2 1 2 1 Z " fill="#FEBE00" transform="translate(71,154)"/>
<path d="M0 0 C2 1 2 1 2 1 Z " fill="#D0C1B7" transform="translate(86,152)"/>
<path d="M0 0 C2 1 2 1 2 1 Z " fill="#E0D3C5" transform="translate(84,151)"/>
<path d="" fill="#FEBE00" transform="translate(0,0)"/>
<path d="" fill="#FFBD00" transform="translate(0,0)"/>
<path d="M0 0 C2 1 2 1 2 1 Z " fill="#D0C1B6" transform="translate(79,148)"/>
<path d="M0 0 C2 1 2 1 2 1 Z " fill="#F2E8D6" transform="translate(108,147)"/>
<path d="" fill="#B8B98A" transform="translate(0,0)"/>
<path d="M0 0 C2 1 2 1 2 1 Z " fill="#274476" transform="translate(150,140)"/>
<path d="M0 0 C2 1 2 1 2 1 Z " fill="#284375" transform="translate(152,139)"/>
<path d="M0 0 C2 1 2 1 2 1 Z " fill="#2A3864" transform="translate(157,136)"/>
<path d="M0 0 C2 1 2 1 2 1 Z " fill="#283F70" transform="translate(159,135)"/>
<path d="M0 0 C2 1 2 1 2 1 Z " fill="#284475" transform="translate(161,134)"/>
<path d="M0 0 C2 1 2 1 2 1 Z " fill="#286BA9" transform="translate(143,134)"/>
<path d="M0 0 C2 1 2 1 2 1 Z " fill="#FED55C" transform="translate(139,134)"/>
<path d="" fill="#F5B601" transform="translate(0,0)"/>
<path d="M0 0 C2 1 2 1 2 1 Z " fill="#294174" transform="translate(148,130)"/>
<path d="M0 0 C2 1 2 1 2 1 Z " fill="#293E6E" transform="translate(150,129)"/>
<path d="M0 0 C2 1 2 1 2 1 Z " fill="#FED458" transform="translate(148,128)"/>
<path d="M0 0 C2 1 2 1 2 1 Z " fill="#FDD359" transform="translate(141,128)"/>
<path d="M0 0 C2 1 2 1 2 1 Z " fill="#FDD35D" transform="translate(150,127)"/>
<path d="M0 0 C2 1 2 1 2 1 Z " fill="#2A4675" transform="translate(155,126)"/>
<path d="M0 0 C2 1 2 1 2 1 Z " fill="#284274" transform="translate(157,125)"/>
<path d="M0 0 C2 1 2 1 2 1 Z " fill="#FED560" transform="translate(153,125)"/>
<path d="M0 0 C2 1 2 1 2 1 Z " fill="#28234A" transform="translate(104,122)"/>
<path d="" fill="#FED766" transform="translate(0,0)"/>
<path d="" fill="#FED96A" transform="translate(0,0)"/>
<path d="M0 0 C2 1 2 1 2 1 Z " fill="#FFD355" transform="translate(131,99)"/>
<path d="M0 0 C2 1 2 1 2 1 Z " fill="#FFE188" transform="translate(155,97)"/>
<path d="M0 0 C2 1 2 1 2 1 Z " fill="#FCBD00" transform="translate(141,96)"/>
<path d="M0 0 C2 1 2 1 2 1 Z " fill="#B2C3CC" transform="translate(33,82)"/>
<path d="M0 0 C2 1 2 1 2 1 Z " fill="#D4DED9" transform="translate(35,81)"/>
<path d="M0 0 C2 1 2 1 2 1 Z " fill="#ACC0CB" transform="translate(38,79)"/>
<path d="M0 0 C2 1 2 1 2 1 Z " fill="#BBC8CF" transform="translate(40,78)"/>
<path d="" fill="#FFF4E1" transform="translate(0,0)"/>
<path d="M0 0 C2 1 2 1 2 1 Z " fill="#B6C6CE" transform="translate(45,75)"/>
<path d="M0 0 C2 1 2 1 2 1 Z " fill="#D1D9D5" transform="translate(47,74)"/>
<path d="" fill="#FEF4DF" transform="translate(0,0)"/>
<path d="M0 0 C2 1 2 1 2 1 Z " fill="#B2C3CD" transform="translate(50,72)"/>
<path d="M0 0 C2 1 2 1 2 1 Z " fill="#BCCCD0" transform="translate(52,71)"/>
<path d="" fill="#80666D" transform="translate(0,0)"/>
<path d="M0 0 C2 1 2 1 2 1 Z " fill="#B9CACE" transform="translate(57,68)"/>
<path d="M0 0 C2 1 2 1 2 1 Z " fill="#B2C3CD" transform="translate(62,65)"/>
<path d="M0 0 C2 1 2 1 2 1 Z " fill="#C8D0D3" transform="translate(64,64)"/>
<path d="" fill="#E6C0AA" transform="translate(0,0)"/>
<path d="M0 0 C2 1 2 1 2 1 Z " fill="#502E41" transform="translate(124,62)"/>
<path d="M0 0 C2 1 2 1 2 1 Z " fill="#BAC8CE" transform="translate(69,61)"/>
<path d="M0 0 C2 1 2 1 2 1 Z " fill="#B2C5CD" transform="translate(74,58)"/>
<path d="M0 0 C2 1 2 1 2 1 Z " fill="#D0D8D4" transform="translate(76,57)"/>
<path d="M0 0 C2 1 2 1 2 1 Z " fill="#BACACF" transform="translate(81,54)"/>
<path d="M0 0 C2 1 2 1 2 1 Z " fill="#B2C3CD" transform="translate(86,51)"/>
<path d="M0 0 C2 1 2 1 2 1 Z " fill="#D5DFDA" transform="translate(88,50)"/>
<path d="M0 0 C2 1 2 1 2 1 Z " fill="#AABECB" transform="translate(91,48)"/>
<path d="M0 0 C2 1 2 1 2 1 Z " fill="#C5D0D1" transform="translate(93,47)"/>
<path d="M0 0 C2 1 2 1 2 1 Z " fill="#B5C6CD" transform="translate(98,44)"/>
<path d="M0 0 C2 1 2 1 2 1 Z " fill="#B7C2B6" transform="translate(103,41)"/>
<path d="M0 0 C2 1 2 1 2 1 Z " fill="#EEC96E" transform="translate(102,38)"/>
<path d="" fill="#F8DA7C" transform="translate(0,0)"/>
<path d="M0 0 C2 1 2 1 2 1 Z " fill="#FFDA71" transform="translate(109,26)"/>
<path d="M0 0 C2 1 2 1 2 1 Z " fill="#FEDE83" transform="translate(119,22)"/>
<path d="" fill="#29609C" transform="translate(0,0)"/>
<path d="" fill="#28609B" transform="translate(0,0)"/>
<path d="" fill="#28609B" transform="translate(0,0)"/>
<path d="" fill="#29609C" transform="translate(0,0)"/>
<path d="" fill="#7F9DB9" transform="translate(0,0)"/>
<path d="" fill="#29021D" transform="translate(0,0)"/>
<path d="" fill="#29609C" transform="translate(0,0)"/>
<path d="" fill="#28011D" transform="translate(0,0)"/>
<path d="" fill="#84A5BF" transform="translate(0,0)"/>
<path d="" fill="#81A3BE" transform="translate(0,0)"/>
<path d="" fill="#FFBE00" transform="translate(0,0)"/>
<path d="" fill="#ECE2D1" transform="translate(0,0)"/>
<path d="" fill="#FFBE00" transform="translate(0,0)"/>
<path d="" fill="#FFBF00" transform="translate(0,0)"/>
<path d="" fill="#723436" transform="translate(0,0)"/>
<path d="" fill="#DFD2C3" transform="translate(0,0)"/>
<path d="" fill="#FFBE00" transform="translate(0,0)"/>
<path d="" fill="#FFBE00" transform="translate(0,0)"/>
<path d="" fill="#E3D6C8" transform="translate(0,0)"/>
<path d="" fill="#FFBF00" transform="translate(0,0)"/>
<path d="" fill="#FFBE00" transform="translate(0,0)"/>
<path d="" fill="#FFBE00" transform="translate(0,0)"/>
<path d="" fill="#FFBF01" transform="translate(0,0)"/>
<path d="" fill="#FEBE01" transform="translate(0,0)"/>
<path d="" fill="#FEBF01" transform="translate(0,0)"/>
<path d="" fill="#DFD2C4" transform="translate(0,0)"/>
<path d="" fill="#FFBE00" transform="translate(0,0)"/>
<path d="" fill="#E5D8C9" transform="translate(0,0)"/>
<path d="" fill="#F1E6D4" transform="translate(0,0)"/>
<path d="" fill="#F4E9D7" transform="translate(0,0)"/>
<path d="" fill="#EED6A1" transform="translate(0,0)"/>
<path d="" fill="#FEDF84" transform="translate(0,0)"/>
<path d="" fill="#294172" transform="translate(0,0)"/>
<path d="" fill="#284475" transform="translate(0,0)"/>
<path d="" fill="#D5C374" transform="translate(0,0)"/>
<path d="" fill="#283F6E" transform="translate(0,0)"/>
<path d="" fill="#293F6F" transform="translate(0,0)"/>
<path d="" fill="#FDBE00" transform="translate(0,0)"/>
<path d="" fill="#284476" transform="translate(0,0)"/>
<path d="" fill="#294475" transform="translate(0,0)"/>
<path d="" fill="#294475" transform="translate(0,0)"/>
<path d="" fill="#284275" transform="translate(0,0)"/>
<path d="" fill="#294172" transform="translate(0,0)"/>
<path d="" fill="#FED359" transform="translate(0,0)"/>
<path d="" fill="#2A3F71" transform="translate(0,0)"/>
<path d="" fill="#FEF5E1" transform="translate(0,0)"/>
<path d="" fill="#FFD251" transform="translate(0,0)"/>
<path d="" fill="#FFD253" transform="translate(0,0)"/>
<path d="" fill="#FED14C" transform="translate(0,0)"/>
<path d="" fill="#503F3A" transform="translate(0,0)"/>
<path d="" fill="#FFD55E" transform="translate(0,0)"/>
<path d="" fill="#FED251" transform="translate(0,0)"/>
<path d="" fill="#FFD356" transform="translate(0,0)"/>
<path d="" fill="#FFD55E" transform="translate(0,0)"/>
<path d="" fill="#FFC724" transform="translate(0,0)"/>
<path d="" fill="#FFE595" transform="translate(0,0)"/>
<path d="" fill="#FABA01" transform="translate(0,0)"/>
<path d="" fill="#FFD354" transform="translate(0,0)"/>
<path d="" fill="#FFDB77" transform="translate(0,0)"/>
<path d="" fill="#FCBA00" transform="translate(0,0)"/>
<path d="" fill="#FFD255" transform="translate(0,0)"/>
<path d="" fill="#FDBD00" transform="translate(0,0)"/>
<path d="" fill="#FFBE00" transform="translate(0,0)"/>
<path d="" fill="#FFC210" transform="translate(0,0)"/>
<path d="" fill="#FFC100" transform="translate(0,0)"/>
<path d="" fill="#FBBB00" transform="translate(0,0)"/>
<path d="" fill="#F5EFDF" transform="translate(0,0)"/>
<path d="" fill="#AABFCC" transform="translate(0,0)"/>
<path d="" fill="#B5C7CD" transform="translate(0,0)"/>
<path d="" fill="#B1C4CD" transform="translate(0,0)"/>
<path d="" fill="#FFF4E0" transform="translate(0,0)"/>
<path d="" fill="#B1C3CD" transform="translate(0,0)"/>
<path d="" fill="#FFF5E1" transform="translate(0,0)"/>
<path d="" fill="#B8C8CE" transform="translate(0,0)"/>
<path d="" fill="#B5C6CE" transform="translate(0,0)"/>
<path d="" fill="#B5C5CE" transform="translate(0,0)"/>
<path d="" fill="#EFC7AD" transform="translate(0,0)"/>
<path d="" fill="#B7C8CE" transform="translate(0,0)"/>
<path d="" fill="#EEE0D0" transform="translate(0,0)"/>
<path d="" fill="#B5B5B9" transform="translate(0,0)"/>
<path d="" fill="#B2C3CC" transform="translate(0,0)"/>
<path d="" fill="#553246" transform="translate(0,0)"/>
<path d="" fill="#B5C6CE" transform="translate(0,0)"/>
<path d="" fill="#553347" transform="translate(0,0)"/>
<path d="" fill="#B5C6CD" transform="translate(0,0)"/>
<path d="" fill="#BBCACF" transform="translate(0,0)"/>
<path d="" fill="#FEF4E1" transform="translate(0,0)"/>
<path d="" fill="#FEF3E0" transform="translate(0,0)"/>
<path d="" fill="#AFC3CD" transform="translate(0,0)"/>
<path d="" fill="#B6C7CF" transform="translate(0,0)"/>
<path d="" fill="#F9B58F" transform="translate(0,0)"/>
<path d="" fill="#FF9863" transform="translate(0,0)"/>
<path d="" fill="#B2C4CD" transform="translate(0,0)"/>
<path d="" fill="#BACACE" transform="translate(0,0)"/>
<path d="" fill="#EFB002" transform="translate(0,0)"/>
<path d="" fill="#B0C1CC" transform="translate(0,0)"/>
<path d="" fill="#B5C6CD" transform="translate(0,0)"/>
<path d="" fill="#B1C3CC" transform="translate(0,0)"/>
<path d="" fill="#ADC1CC" transform="translate(0,0)"/>
<path d="" fill="#B7C7CE" transform="translate(0,0)"/>
<path d="" fill="#A8BECA" transform="translate(0,0)"/>
<path d="" fill="#ACC1CC" transform="translate(0,0)"/>
<path d="" fill="#877F5E" transform="translate(0,0)"/>
<path d="" fill="#D29E1F" transform="translate(0,0)"/>
<path d="" fill="#DEA000" transform="translate(0,0)"/>
<path d="" fill="#FFE688" transform="translate(0,0)"/>
<path d="" fill="#FDD665" transform="translate(0,0)"/>
<path d="" fill="#FED667" transform="translate(0,0)"/>
<path d="" fill="#FEDA6E" transform="translate(0,0)"/>
<path d="" fill="#FFD96C" transform="translate(0,0)"/>
<path d="" fill="#FED86A" transform="translate(0,0)"/>
<path d="" fill="#FFD864" transform="translate(0,0)"/>
<path d="" fill="#FFD96A" transform="translate(0,0)"/>
<path d="" fill="#FFD455" transform="translate(0,0)"/>
<path d="" fill="#FFD867" transform="translate(0,0)"/>
<path d="" fill="#FED24F" transform="translate(0,0)"/>
<path d="" fill="#FFD663" transform="translate(0,0)"/>
<path d="" fill="#FFD45A" transform="translate(0,0)"/>
<path d="" fill="#FED867" transform="translate(0,0)"/>
<path d="" fill="#FEDC81" transform="translate(0,0)"/>
</svg>
